<?xml version="1.0" standalone="no"?>
<!DOCTYPE svg PUBLIC "-//W3C//DTD SVG 20010904//EN"
 "http://www.w3.org/TR/2001/REC-SVG-20010904/DTD/svg10.dtd">
<svg version="1.0" xmlns="http://www.w3.org/2000/svg"
 width="4000.000000pt" height="3000.000000pt" viewBox="0 0 3000.000000 2000.000000"
 preserveAspectRatio="xMidYMid meet">

<g transform="translate(0.000000,2000.000000) scale(0.100000,-0.100000)"
fill="#ff7409" stroke="none">
<path d="M16852 17979 c-118 -20 -271 -84 -385 -161 -165 -112 -259 -269 -259
-432 0 -68 6 -97 35 -178 20 -53 39 -117 42 -142 7 -42 4 -51 -40 -123 -58
-95 -75 -141 -75 -202 0 -79 25 -140 96 -236 81 -109 103 -156 104 -215 0 -74
-30 -108 -157 -180 -100 -56 -154 -108 -184 -175 -29 -66 -34 -124 -15 -189
14 -48 31 -72 96 -142 95 -100 112 -143 82 -202 -11 -23 -33 -44 -57 -56 -35
-17 -42 -18 -79 -5 -25 9 -49 27 -63 48 -13 19 -23 29 -23 22 0 -6 15 -27 33
-47 101 -110 268 13 202 149 -9 18 -44 62 -79 100 -82 87 -100 124 -100 207 0
108 66 205 176 261 143 72 193 133 186 223 -5 65 -31 114 -108 214 -33 43 -66
97 -75 122 -20 55 -22 134 -5 186 13 41 58 124 67 124 3 0 2 -16 -2 -36 -10
-58 -8 -208 5 -271 16 -76 49 -155 105 -246 56 -92 75 -145 75 -207 0 -54 -21
-90 -103 -180 -64 -70 -91 -129 -84 -184 3 -22 32 -92 63 -155 42 -83 59 -127
62 -166 8 -93 -36 -181 -117 -232 l-44 -28 39 -9 c74 -17 321 -13 410 8 l81
18 20 87 19 86 18 -40 c37 -85 101 -125 215 -132 91 -6 215 15 340 58 47 16
90 30 95 32 4 1 14 -14 21 -33 11 -30 16 -35 41 -32 31 4 120 39 144 57 26 20
69 35 84 29 8 -3 17 -1 21 5 3 7 0 8 -9 5 -9 -3 -16 -1 -16 5 0 6 6 11 14 11
8 0 46 34 85 76 69 74 151 213 151 258 0 9 5 26 10 36 14 26 -9 39 -26 15 -42
-57 -147 -155 -247 -230 -32 -24 -40 -26 -48 -14 -8 11 -9 10 -7 -5 2 -16 -19
-31 -107 -75 -107 -55 -112 -56 -203 -59 -71 -2 -92 0 -86 9 5 9 2 10 -11 5
-21 -8 -125 22 -125 35 0 5 -6 9 -13 9 -23 0 -107 61 -100 72 4 7 1 8 -7 3
-14 -9 -130 109 -130 132 0 8 -4 11 -10 8 -5 -3 -10 1 -10 9 0 9 -4 16 -8 16
-10 0 -98 173 -137 270 -15 36 -35 83 -44 105 -31 71 -66 170 -63 179 2 5 -1
12 -5 15 -10 8 -76 198 -76 220 0 9 -3 18 -7 21 -4 3 -10 16 -14 30 -6 19 -5
21 3 10 6 -9 11 -10 11 -3 0 6 -6 18 -13 25 -23 22 -38 78 -27 98 15 28 12 37
-4 15 -13 -18 -15 -16 -23 30 -4 28 -8 115 -8 195 1 113 5 158 19 202 11 34
23 55 29 51 6 -4 8 0 4 11 -4 11 5 36 27 71 43 67 50 71 65 38 7 -15 21 -33
32 -41 11 -7 17 -18 14 -23 -3 -5 2 -6 11 -2 13 5 15 3 9 -7 -5 -9 -4 -11 3
-6 6 4 26 -1 43 -10 28 -14 56 -15 223 -9 l191 7 55 -29 c38 -20 64 -43 88
-78 l34 -50 -32 -13 c-18 -7 -39 -11 -47 -8 -8 3 -11 1 -8 -4 3 -6 2 -10 -3
-10 -4 0 -27 -16 -49 -35 -22 -19 -42 -33 -44 -31 -2 3 -5 -11 -6 -29 -3 -41
9 -50 39 -33 22 13 29 14 56 17 7 0 11 5 8 10 -3 4 6 13 20 20 20 9 24 9 18
-1 -5 -7 7 0 25 15 36 30 67 32 65 4 -1 -9 2 -15 6 -12 5 3 12 1 15 -5 18 -29
96 -63 208 -89 141 -34 197 -60 239 -114 23 -29 29 -44 24 -65 -4 -16 -3 -22
2 -14 9 13 57 -175 55 -215 0 -13 2 -21 6 -18 5 2 12 -16 18 -41 6 -25 6 -47
2 -50 -5 -3 -9 -13 -8 -22 0 -14 2 -13 9 3 8 19 9 19 9 1 1 -11 4 -17 7 -13 9
9 64 -102 58 -117 -3 -8 -1 -17 5 -21 7 -3 8 0 5 9 -9 24 -1 20 40 -18 33 -32
48 -55 27 -41 -5 3 -13 0 -17 -7 -4 -7 -4 -10 1 -6 4 4 15 2 23 -5 13 -9 14
-9 8 1 -14 23 6 12 40 -22 34 -34 45 -54 22 -40 -9 5 -9 2 1 -9 7 -9 19 -17
25 -17 6 0 4 5 -4 10 -8 5 -10 10 -4 10 11 0 80 -88 77 -99 -1 -3 -5 -15 -9
-26 -7 -20 -7 -20 9 0 14 18 15 18 26 -20 25 -85 25 -131 2 -170 -11 -20 -21
-38 -21 -40 0 -6 45 8 66 22 12 7 30 11 40 7 16 -5 17 -4 4 6 -12 9 -9 10 15
6 21 -5 26 -4 16 3 -12 7 -7 13 22 27 20 10 37 21 37 25 0 4 23 24 51 44 85
61 223 201 313 317 114 146 413 578 432 624 10 23 13 50 9 71 -8 42 -64 99
-123 125 l-44 20 30 19 c33 19 66 73 58 92 -2 7 -5 5 -5 -5 -1 -27 -49 -76
-86 -88 -46 -15 -130 8 -167 47 -47 49 -60 97 -68 243 -5 109 -11 143 -28 176
-26 52 -73 91 -115 99 -33 6 -46 3 -205 -57 l-62 -23 -37 20 c-49 26 -78 72
-104 159 -27 92 -58 145 -116 195 -67 60 -124 83 -218 88 -89 6 -113 0 -287
-66 -90 -35 -118 -41 -180 -41 -98 0 -175 21 -261 72 -176 103 -250 121 -395
97z m1223 -100 c63 -23 136 -85 169 -142 14 -23 34 -75 46 -114 53 -176 132
-215 290 -142 49 22 90 34 118 34 38 0 48 -5 82 -41 43 -46 60 -94 60 -169 0
-97 19 -217 40 -251 19 -34 19 -34 0 -24 -30 16 -67 87 -91 175 -34 127 -69
180 -132 204 -16 6 -75 11 -133 11 -157 0 -193 21 -235 135 -83 225 -209 307
-449 291 -52 -3 -106 -9 -120 -12 -51 -11 68 38 135 57 80 22 139 19 220 -12z"/>
<path d="M16530 17198 c0 -7 5 -20 11 -28 8 -12 9 -10 4 9 -5 17 -4 22 5 16 9
-5 11 -4 6 3 -10 16 -26 15 -26 0z"/>
<path d="M16968 17163 c7 -3 16 -2 19 1 4 3 -2 6 -13 5 -11 0 -14 -3 -6 -6z"/>
<path d="M16938 17143 c7 -3 16 -2 19 1 4 3 -2 6 -13 5 -11 0 -14 -3 -6 -6z"/>
<path d="M17118 17143 c7 -3 16 -2 19 1 4 3 -2 6 -13 5 -11 0 -14 -3 -6 -6z"/>
<path d="M19181 17114 c0 -11 3 -14 6 -6 3 7 2 16 -1 19 -3 4 -6 -2 -5 -13z"/>
<path d="M17211 17074 c0 -11 3 -14 6 -6 3 7 2 16 -1 19 -3 4 -6 -2 -5 -13z"/>
<path d="M17330 16939 c0 -5 5 -7 10 -4 6 3 10 8 10 11 0 2 -4 4 -10 4 -5 0
-10 -5 -10 -11z"/>
<path d="M17243 16895 c0 -7 6 -11 14 -8 7 3 13 6 13 8 0 2 -6 5 -13 8 -8 3
-14 -1 -14 -8z"/>
<path d="M17395 16831 c-101 -27 -171 -92 -157 -144 l7 -27 33 31 c18 17 36
28 40 24 4 -4 -2 -13 -12 -21 -11 -8 -16 -14 -10 -14 19 0 35 18 32 35 -6 35
133 82 172 57 13 -8 16 -6 15 8 -2 23 -29 50 -52 51 -16 0 -16 1 2 9 33 14 -4
9 -70 -9z"/>
<path d="M17128 16823 c6 -2 18 -2 25 0 6 3 1 5 -13 5 -14 0 -19 -2 -12 -5z"/>
<path d="M21554 16792 c-92 -32 -165 -99 -207 -189 l-22 -48 -3 -997 -2 -998
-420 0 -420 0 84 -167 c85 -170 118 -244 114 -249 -2 -1 -39 -12 -82 -23 -44
-12 -80 -22 -82 -23 -1 -2 9 -68 23 -148 14 -80 26 -160 27 -177 l1 -33 377 0
378 0 2 -817 3 -818 26 -56 c33 -69 91 -129 160 -166 l54 -28 903 -3 902 -3 0
-279 0 -280 -662 -2 c-365 -1 46 -5 912 -8 1284 -5 1583 -9 1618 -20 57 -18
115 -70 144 -128 l23 -47 0 -2450 0 -2450 -23 -47 c-13 -27 -42 -64 -65 -83
-80 -69 25 -65 -1702 -65 -1734 0 -1627 -4 -1705 66 -21 19 -49 56 -62 82
l-23 47 -5 2335 -5 2335 -2 -2340 -3 -2340 24 -50 c12 -28 40 -65 61 -84 79
-69 37 -66 793 -69 l682 -3 -4 -967 c-2 -532 -7 -988 -11 -1014 -4 -31 -13
-49 -24 -53 -9 -2 -3720 -4 -8246 -2 l-8230 2 -3 157 -3 157 71 207 c298 877
490 1575 490 1780 0 135 -60 317 -137 413 -85 108 -235 219 -355 263 -47 17
-58 25 -58 43 0 17 7 24 31 29 l31 6 -7 57 c-8 63 -12 76 -24 68 -5 -2 -6 -27
-3 -55 2 -27 1 -50 -4 -50 -5 -1 -29 -5 -54 -10 -25 -6 -126 -14 -226 -19
-138 -7 -204 -15 -280 -35 -95 -24 -241 -42 -684 -86 -577 -56 -974 -59 -1100
-10 -104 41 -347 254 -541 475 -24 27 -53 59 -64 71 -11 11 -40 45 -64 74 -25
29 -50 58 -56 64 -5 6 -34 40 -63 76 -29 36 -62 76 -74 90 -11 14 -39 50 -62
80 -23 30 -46 60 -52 67 -7 7 -52 65 -100 130 -49 65 -91 120 -94 123 -11 9
-281 376 -380 515 -35 50 -86 121 -114 160 -27 38 -49 75 -49 82 0 7 -2 11 -5
8 -7 -7 -62 84 -77 126 -59 165 12 413 163 571 35 37 42 58 11 35 -20 -16
-115 -141 -134 -177 -72 -140 -96 -310 -59 -428 11 -33 56 -112 112 -196 52
-78 105 -162 117 -188 12 -26 26 -53 32 -60 5 -7 32 -53 58 -103 44 -82 68
-124 102 -180 7 -11 24 -42 39 -70 15 -27 41 -73 59 -101 18 -28 36 -60 39
-72 4 -12 12 -22 17 -22 5 0 9 -4 9 -10 0 -12 211 -366 257 -432 18 -26 33
-50 33 -54 0 -3 13 -24 29 -47 16 -23 58 -88 94 -143 62 -97 234 -338 260
-366 6 -7 30 -35 51 -62 123 -152 228 -208 451 -241 163 -24 520 -14 577 16
13 7 18 25 20 72 l3 62 50 2 c119 6 485 36 660 54 225 23 235 23 235 6 0 -9
-46 -30 -118 -55 -64 -22 -209 -72 -322 -112 -113 -40 -322 -112 -465 -160
-143 -49 -318 -109 -390 -135 -71 -26 -220 -78 -330 -116 -110 -39 -245 -86
-300 -105 -55 -20 -170 -60 -255 -89 -85 -30 -220 -77 -300 -105 -80 -29 -188
-67 -240 -85 -418 -146 -529 -185 -840 -298 l-115 -42 -22 -86 c-68 -268 -43
-644 60 -885 40 -95 66 -132 162 -232 209 -219 495 -349 800 -365 63 -3 70 -5
67 -23 -2 -10 -28 -95 -57 -189 -62 -196 -209 -672 -265 -855 -21 -69 -80
-258 -130 -420 -164 -529 -159 -512 -141 -498 56 43 184 154 226 197 l49 51
864 0 863 0 -6 -42 -6 -43 193 -54 c106 -30 229 -65 273 -77 44 -12 407 -115
806 -228 399 -113 730 -206 734 -206 30 0 -211 246 -373 380 -50 41 -89 81
-87 88 3 6 -4 12 -13 12 -24 0 -172 118 -172 136 0 8 -10 14 -25 14 -14 0 -25
3 -25 8 0 4 3444 6 7652 4 4209 -2 8591 0 9738 5 1381 5 1891 10 1510 13 -573
5 -575 5 -512 23 260 73 460 299 501 567 7 44 11 152 9 264 l-3 188 -400 2
-400 1 -3 1333 -2 1333 241 -3 242 -3 32 -90 c18 -49 49 -134 69 -189 l36 -98
-38 7 c-20 3 -47 9 -59 12 -13 3 -23 1 -23 -4 0 -5 30 -18 66 -29 l66 -19 79
-215 c43 -118 79 -215 79 -215 0 -1 -22 -18 -50 -39 -27 -21 -50 -42 -50 -47
0 -12 49 14 78 41 13 12 25 20 28 18 3 -4 219 -589 271 -735 l15 -43 319 1
c266 0 319 3 319 14 0 8 -16 80 -35 161 -19 80 -35 148 -35 150 0 2 19 2 43
-1 l42 -5 -40 20 c-22 11 -43 21 -47 22 -7 3 -98 392 -98 421 0 10 5 15 10 12
6 -3 10 -2 10 2 0 5 -9 14 -20 21 -11 7 -20 19 -20 28 0 14 -114 516 -126 556
-3 11 5 22 26 34 39 24 39 36 -1 22 -16 -6 -32 -9 -33 -7 -5 6 -76 298 -76
313 0 7 19 19 42 26 42 12 92 40 73 40 -6 0 -35 -7 -65 -15 -69 -19 -70 -18
-70 1 0 10 -20 91 -45 181 -25 90 -45 173 -45 186 0 14 11 28 31 40 36 20 34
32 -3 18 l-25 -9 -6 2268 c-5 2209 -6 2269 -25 2312 -25 57 -74 105 -137 134
l-50 24 -497 0 -498 0 0 280 0 280 813 3 c446 1 -95 4 -1203 6 -2147 4 -2198
4 -2259 21 -55 14 -129 67 -168 118 -68 90 -63 -82 -61 2347 l3 2200 27 56
c36 71 89 125 158 158 l55 26 2220 0 2220 0 48 -22 c70 -33 140 -108 167 -179
l22 -59 7 -2185 8 -2185 -1 2200 -1 2200 -26 56 c-34 72 -96 134 -168 168
l-56 26 -2210 2 c-2087 2 -2213 1 -2261 -15z m-15949 -11669 c-26 -87 -50
-162 -54 -166 -5 -4 -38 24 -75 64 -64 70 -66 73 -49 90 32 32 218 178 221
174 2 -2 -17 -75 -43 -162z m-1666 -1470 c53 -44 40 -132 -23 -158 -90 -38
-168 80 -100 149 32 31 90 35 123 9z m-259 -763 c8 12 23 10 110 -19 l101 -33
-3 -35 -3 -35 135 -33 c74 -18 218 -51 320 -74 102 -23 247 -63 323 -88 108
-36 141 -43 147 -33 6 9 21 11 54 6 25 -4 46 -10 46 -14 0 -12 -69 -264 -73
-268 -2 -2 -389 -3 -860 -2 l-857 3 96 108 c53 59 102 107 110 107 8 0 14 8
14 18 0 21 137 183 152 179 6 -1 14 10 18 25 7 24 49 83 94 133 10 11 25 30
34 43 11 18 17 20 24 10 6 -10 10 -10 18 2z m1701 -269 c35 -35 38 -77 9 -114
-36 -45 -102 -44 -137 2 -21 27 -16 85 10 108 45 41 79 42 118 4z"/>
<path d="M16572 16791 c-10 -6 -5 -12 19 -21 29 -13 30 -14 13 -27 -10 -7 -24
-11 -31 -9 -7 3 -12 0 -10 -7 1 -7 -3 -11 -8 -10 -6 1 -11 -6 -11 -15 0 -9 -3
-30 -6 -47 -3 -16 -3 -25 -1 -20 2 6 68 29 146 51 118 34 142 44 142 60 0 12
-8 20 -23 22 -12 2 -20 6 -18 10 2 4 -16 7 -40 7 -24 0 -44 -2 -44 -6 0 -4
-15 -10 -34 -13 -35 -7 -89 10 -80 25 6 11 3 11 -14 0z"/>
<path d="M16850 16779 c0 -5 5 -7 10 -4 6 3 10 8 10 11 0 2 -4 4 -10 4 -5 0
-10 -5 -10 -11z"/>
<path d="M17410 16760 l-25 -6 25 -7 c13 -3 28 -3 33 2 13 13 -5 19 -33 11z"/>
<path d="M17470 16749 c0 -5 11 -9 25 -9 14 0 25 2 25 4 0 2 -11 6 -25 8 -14
3 -25 1 -25 -3z"/>
<path d="M17770 16742 c0 -6 -8 -9 -17 -6 -15 5 -15 4 -3 -4 8 -6 18 -8 23 -5
5 3 13 -1 18 -8 5 -8 9 -9 9 -3 0 6 -7 17 -15 24 -10 8 -15 9 -15 2z"/>
<path d="M17095 16710 c3 -5 8 -10 11 -10 2 0 4 5 4 10 0 6 -5 10 -11 10 -5 0
-7 -4 -4 -10z"/>
<path d="M17040 16682 c0 -10 -3 -21 -6 -24 -3 -3 -5 -117 -4 -252 0 -193 -2
-246 -12 -244 -7 2 -14 -8 -15 -22 -2 -25 -2 -25 5 -2 l7 24 22 -30 c24 -33
39 -33 131 -4 88 28 61 43 -37 20 -28 -6 -54 -9 -57 -5 -4 3 -7 118 -9 254 -1
136 2 237 6 223 6 -23 7 -23 8 -3 1 12 -3 25 -9 28 -5 3 -10 15 -10 25 0 10
-4 22 -10 25 -5 3 -10 -2 -10 -13z"/>
<path d="M16510 16655 c0 -8 2 -15 4 -15 2 0 6 7 10 15 3 8 1 15 -4 15 -6 0
-10 -7 -10 -15z"/>
<path d="M17101 16624 c0 -11 3 -14 6 -6 3 7 2 16 -1 19 -3 4 -6 -2 -5 -13z"/>
<path d="M16745 16599 c-16 -5 -39 -7 -50 -4 -11 3 -14 2 -8 -1 8 -4 2 -14
-18 -31 -34 -29 -63 -79 -54 -93 10 -17 29 -11 59 20 16 16 33 27 38 24 4 -3
6 -9 3 -14 -3 -5 -1 -11 4 -15 6 -3 8 3 6 15 -6 29 26 41 94 36 l60 -5 -1 35
c-1 19 -4 30 -8 24 -4 -7 -20 -6 -49 5 -24 8 -44 15 -45 14 0 0 -14 -5 -31
-10z"/>
<path d="M16838 16603 c7 -3 16 -2 19 1 4 3 -2 6 -13 5 -11 0 -14 -3 -6 -6z"/>
<path d="M17470 16590 c0 -5 5 -10 11 -10 5 0 7 5 4 10 -3 6 -8 10 -11 10 -2
0 -4 -4 -4 -10z"/>
<path d="M17396 16582 c-23 -5 -38 -19 -55 -50 -10 -18 -9 -26 6 -47 39 -53
105 -47 132 11 10 24 10 31 -6 52 -21 28 -49 40 -77 34z"/>
<path d="M16967 16534 c3 -27 7 -51 9 -53 8 -9 3 75 -5 88 -5 8 -7 -5 -4 -35z"/>
<path d="M16586 16545 c-9 -26 -7 -32 5 -12 6 10 9 21 6 23 -2 3 -7 -2 -11
-11z"/>
<path d="M16616 16545 c-9 -26 -7 -32 5 -12 6 10 9 21 6 23 -2 3 -7 -2 -11
-11z"/>
<path d="M17301 16514 c0 -11 3 -14 6 -6 3 7 2 16 -1 19 -3 4 -6 -2 -5 -13z"/>
<path d="M16770 16510 c14 -4 32 -8 40 -9 13 -1 13 0 0 9 -8 5 -26 9 -40 9
l-25 -1 25 -8z"/>
<path d="M17502 16494 c-7 -8 -8 -14 -3 -14 10 0 25 19 20 25 -2 1 -10 -3 -17
-11z"/>
<path d="M16591 16470 c0 -8 4 -22 9 -30 12 -18 12 -2 0 25 -6 13 -9 15 -9 5z"/>
<path d="M17378 16433 c7 -3 16 -2 19 1 4 3 -2 6 -13 5 -11 0 -14 -3 -6 -6z"/>
<path d="M16815 16370 c3 -5 -3 -11 -14 -15 -23 -7 -32 -56 -17 -88 9 -16 22
-23 51 -25 51 -3 64 6 75 51 6 28 4 39 -9 51 -18 16 -94 39 -86 26z"/>
<path d="M16743 16315 c-3 -9 -3 -18 -1 -21 3 -3 8 4 11 16 6 23 -1 27 -10 5z"/>
<path d="M17931 16254 c0 -11 3 -14 6 -6 3 7 2 16 -1 19 -3 4 -6 -2 -5 -13z"/>
<path d="M16671 16184 c0 -11 3 -14 6 -6 3 7 2 16 -1 19 -3 4 -6 -2 -5 -13z"/>
<path d="M17960 16181 c0 -25 6 -27 13 -6 4 8 2 17 -3 20 -6 4 -10 -3 -10 -14z"/>
<path d="M17416 16142 c3 -9 9 -27 11 -39 5 -19 1 -23 -20 -23 -16 0 -27 7
-30 18 -3 12 -5 11 -6 -6 -1 -19 -5 -22 -23 -17 -13 4 -18 3 -12 -2 8 -5 2
-17 -17 -36 -16 -16 -29 -23 -29 -16 0 7 -3 10 -6 6 -3 -3 3 -19 15 -36 16
-22 18 -31 9 -35 -7 -3 -3 -3 10 0 32 8 27 -9 -10 -31 l-33 -20 44 -3 c27 -2
49 2 60 11 10 8 36 14 68 13 28 -1 49 1 47 3 -2 2 3 13 12 22 21 23 13 83 -13
107 -10 10 -20 26 -21 37 -5 28 -29 58 -48 61 -11 2 -14 -2 -8 -14z"/>
<path d="M17491 16143 c-1 -6 -4 -20 -7 -30 -5 -17 -5 -17 6 0 6 10 9 23 6 30
-3 9 -5 9 -5 0z"/>
<path d="M16976 16117 c3 -10 9 -15 12 -12 3 3 0 11 -7 18 -10 9 -11 8 -5 -6z"/>
<path d="M17021 16094 c0 -11 3 -14 6 -6 3 7 2 16 -1 19 -3 4 -6 -2 -5 -13z"/>
<path d="M17178 16093 c7 -3 16 -2 19 1 4 3 -2 6 -13 5 -11 0 -14 -3 -6 -6z"/>
<path d="M18010 16086 c4 -4 16 -4 26 2 16 9 14 10 -8 9 -15 -1 -23 -6 -18
-11z"/>
<path d="M23048 15503 c1 -252 3 -532 5 -623 l2 -165 36 -75 c62 -128 149
-206 277 -249 57 -20 81 -21 349 -19 l288 2 -280 6 c-267 6 -283 7 -351 31
-156 56 -263 183 -293 344 -12 62 -16 1140 -5 1169 6 14 77 16 704 16 l697 0
-1 -602 c-1 -581 -2 -605 -21 -653 l-21 -50 -294 -3 c-178 -1 -315 2 -346 8
-124 26 -247 118 -299 224 -21 44 -95 240 -232 617 l-35 97 22 22 c16 16 20
31 18 63 -3 37 -7 44 -40 60 -34 16 -39 17 -66 3 -33 -17 -42 -34 -42 -75 0
-38 20 -62 59 -70 32 -6 35 -11 68 -106 154 -449 200 -578 226 -629 35 -71
119 -156 187 -191 98 -50 142 -55 457 -55 184 0 293 -4 293 -10 0 -5 -26 -36
-58 -68 -58 -60 -132 -105 -212 -128 l-45 -14 40 5 c68 9 176 69 231 127 28
29 55 61 60 70 6 10 35 25 68 33 116 30 186 111 202 233 5 39 -11 114 -95 446
l-101 400 0 133 0 133 -727 0 -728 0 3 -457z m1561 -335 c33 -147 61 -280 61
-297 0 -56 -38 -138 -83 -176 -37 -32 -111 -65 -122 -54 -2 3 4 25 13 49 15
39 17 102 21 490 l4 445 22 -95 c13 -52 50 -215 84 -362z"/>
<path d="M17326 15881 c-4 -5 3 -7 14 -4 23 6 26 13 6 13 -8 0 -17 -4 -20 -9z"/>
<path d="M17308 15853 c7 -3 16 -2 19 1 4 3 -2 6 -13 5 -11 0 -14 -3 -6 -6z"/>
<path d="M17415 15850 c3 -5 11 -10 16 -10 6 0 7 5 4 10 -3 6 -11 10 -16 10
-6 0 -7 -4 -4 -10z"/>
<path d="M18261 15814 c0 -11 3 -14 6 -6 3 7 2 16 -1 19 -3 4 -6 -2 -5 -13z"/>
<path d="M16842 15783 c7 -18 16 -33 20 -33 13 0 9 13 -12 40 l-20 25 12 -32z"/>
<path d="M16866 15727 c3 -10 9 -15 12 -12 3 3 0 11 -7 18 -10 9 -11 8 -5 -6z"/>
<path d="M18246 15683 c-6 -14 -5 -15 5 -6 7 7 10 15 7 18 -3 3 -9 -2 -12 -12z"/>
<path d="M16936 15653 c-6 -14 -5 -15 5 -6 7 7 10 15 7 18 -3 3 -9 -2 -12 -12z"/>
<path d="M18295 15640 c-3 -6 1 -7 9 -4 18 7 21 14 7 14 -6 0 -13 -4 -16 -10z"/>
<path d="M17005 15579 c-4 -6 -5 -12 -2 -15 2 -3 7 2 10 11 7 17 1 20 -8 4z"/>
<path d="M17590 15511 c0 -6 4 -13 10 -16 6 -3 7 1 4 9 -7 18 -14 21 -14 7z"/>
<path d="M17090 15496 c7 -7 13 -7 20 0 6 6 3 10 -10 10 -13 0 -16 -4 -10 -10z"/>
<path d="M17590 15290 c-9 -6 -10 -10 -3 -10 6 0 15 5 18 10 8 12 4 12 -15 0z"/>
<path d="M15863 14753 c9 -2 23 -2 30 0 6 3 -1 5 -18 5 -16 0 -22 -2 -12 -5z"/>
<path d="M16037 14754 c-9 -9 1 -24 16 -24 7 0 6 4 -3 11 -12 8 -9 9 13 5 15
-4 27 -2 27 4 0 11 -43 14 -53 4z"/>
<path d="M15810 14740 c-8 -5 -10 -10 -5 -10 6 0 17 5 25 10 8 5 11 10 5 10
-5 0 -17 -5 -25 -10z"/>
<path d="M15906 14741 c-19 -7 -19 -8 0 -13 13 -3 21 0 21 8 0 8 -1 14 -1 13
-1 0 -10 -4 -20 -8z"/>
<path d="M16387 14743 c-3 -5 10 -8 29 -9 21 0 30 3 22 8 -16 10 -45 10 -51 1z"/>
<path d="M15943 14711 c-2 -23 -1 -24 7 -6 7 15 9 9 9 -26 1 -25 -1 -48 -4
-51 -5 -4 -12 -140 -16 -313 -1 -45 -7 -83 -13 -87 -8 -5 -7 -8 2 -8 6 0 12
-4 12 -10 0 -19 -45 -10 -73 14 -15 13 -32 39 -37 57 -14 46 -12 145 1 167 14
22 3 152 -12 152 -6 0 -7 5 -4 10 3 6 1 10 -4 10 -6 0 -11 6 -11 14 0 19 -11
25 -71 41 l-49 13 55 -52 c42 -39 54 -57 49 -70 -4 -10 -2 -21 5 -25 21 -13
25 -76 6 -94 -38 -38 -115 -2 -115 54 0 37 -10 44 -70 55 -34 5 -1791 7 -4585
4 l-4530 -5 -67 -26 c-153 -60 -268 -161 -333 -293 -69 -140 -65 65 -65 -2853
0 -1454 4 -2643 8 -2643 5 0 41 -27 81 -61 75 -63 79 -64 116 -24 6 6 69 62
140 125 72 63 132 117 135 120 4 5 148 132 192 170 9 8 48 42 86 75 l69 60 7
2220 c9 2438 3 2255 69 2295 32 20 102 20 6430 20 5426 0 6397 2 6397 14 0 7
-7 45 -16 83 l-16 70 -41 -8 c-23 -4 -43 -6 -45 -4 -3 2 -102 607 -102 620 0
3 -705 5 -1567 5 -861 0 -1563 -3 -1560 -6 9 -9 -25 -64 -39 -64 -18 0 -47 32
-36 39 5 3 9 22 9 41 1 19 2 65 4 103 4 57 2 67 -12 67 -16 0 -26 -41 -34
-135 -1 -16 -6 -59 -10 -95 -4 -36 -7 -92 -7 -124 1 -72 -25 -129 -68 -151
-38 -20 -53 -19 -75 5 -14 15 -15 23 -6 33 6 8 8 16 5 19 -3 3 2 46 12 94 9
49 17 144 19 212 1 67 5 126 9 129 13 14 5 23 -13 14 -10 -6 -20 -9 -22 -6 -2
2 -5 -18 -5 -43 -1 -45 -4 -86 -19 -287 -10 -142 -31 -198 -78 -215 -39 -13
-40 -13 -66 9 -20 18 -21 25 -16 103 3 45 8 92 10 103 7 32 14 313 8 333 -2
10 -12 23 -22 29 -14 9 -17 7 -18 -16z"/>
<path d="M16086 14717 c3 -10 9 -15 12 -12 3 3 0 11 -7 18 -10 9 -11 8 -5 -6z"/>
<path d="M15575 14670 c-3 -5 -1 -10 4 -10 6 0 11 5 11 10 0 6 -2 10 -4 10 -3
0 -8 -4 -11 -10z"/>
<path d="M15623 14663 c9 -2 25 -2 35 0 9 3 1 5 -18 5 -19 0 -27 -2 -17 -5z"/>
<path d="M16381 14654 c0 -11 3 -14 6 -6 3 7 2 16 -1 19 -3 4 -6 -2 -5 -13z"/>
<path d="M16123 14635 c-3 -9 -3 -18 -1 -21 3 -3 8 4 11 16 6 23 -1 27 -10 5z"/>
<path d="M15572 14595 c0 -16 2 -22 5 -12 2 9 2 23 0 30 -3 6 -5 -1 -5 -18z"/>
<path d="M16408 14533 c7 -3 16 -2 19 1 4 3 -2 6 -13 5 -11 0 -14 -3 -6 -6z"/>
<path d="M16101 14494 c0 -11 3 -14 6 -6 3 7 2 16 -1 19 -3 4 -6 -2 -5 -13z"/>
<path d="M15786 14483 c-6 -14 -5 -15 5 -6 7 7 10 15 7 18 -3 3 -9 -2 -12 -12z"/>
<path d="M16093 14415 c0 -22 2 -30 4 -17 2 12 2 30 0 40 -3 9 -5 -1 -4 -23z"/>
<path d="M16212 14420 c0 -14 2 -19 5 -12 2 6 2 18 0 25 -3 6 -5 1 -5 -13z"/>
<path d="M24048 14373 c6 -2 18 -2 25 0 6 3 1 5 -13 5 -14 0 -19 -2 -12 -5z"/>
<path d="M16096 14324 c-4 -15 -3 -30 1 -35 4 -4 9 8 10 27 2 41 -2 44 -11 8z"/>
<path d="M16251 14274 c0 -11 3 -14 6 -6 3 7 2 16 -1 19 -3 4 -6 -2 -5 -13z"/>
<path d="M16156 14221 c-4 -5 3 -7 14 -4 23 6 26 13 6 13 -8 0 -17 -4 -20 -9z"/>
<path d="M15975 14210 c-3 -5 -1 -10 4 -10 6 0 11 5 11 10 0 6 -2 10 -4 10 -3
0 -8 -4 -11 -10z"/>
<path d="M16188 14203 c7 -3 16 -2 19 1 4 3 -2 6 -13 5 -11 0 -14 -3 -6 -6z"/>
<path d="M20491 13974 c0 -11 3 -14 6 -6 3 7 2 16 -1 19 -3 4 -6 -2 -5 -13z"/>
<path d="M20511 13934 c0 -11 3 -14 6 -6 3 7 2 16 -1 19 -3 4 -6 -2 -5 -13z"/>
<path d="M19754 13905 c-3 -8 -4 -20 -2 -27 3 -7 7 -1 10 15 6 29 1 36 -8 12z"/>
<path d="M22341 13819 c-79 -15 -169 -65 -229 -127 -143 -146 -172 -356 -74
-535 156 -287 580 -307 762 -35 41 62 71 142 69 187 0 17 -5 8 -13 -24 -15
-60 -37 -111 -62 -145 -43 -56 -123 -123 -184 -153 -61 -30 -72 -32 -175 -32
-105 0 -114 2 -177 33 -96 47 -161 109 -203 196 -84 169 -57 351 73 488 19 20
39 35 44 32 5 -3 7 0 6 6 -5 21 118 77 190 88 151 22 284 -26 386 -139 57 -64
74 -94 98 -179 18 -63 18 -64 15 -18 -6 71 -58 170 -121 234 -106 105 -259
152 -405 123z"/>
<path d="M23711 13819 c-160 -31 -305 -167 -346 -324 -75 -291 133 -564 432
-565 103 0 182 24 260 79 100 70 170 181 178 284 l4 52 -9 -45 c-5 -25 -23
-72 -39 -105 -80 -163 -235 -253 -415 -242 -242 14 -431 240 -396 474 17 115
38 158 115 241 160 173 429 181 603 18 53 -50 107 -139 96 -158 -4 -6 -3 -8 3
-5 9 6 15 -9 37 -98 3 -11 3 5 1 35 -10 121 -111 257 -235 318 -98 48 -188 61
-289 41z"/>
<path d="M25070 13817 c-79 -18 -146 -54 -210 -114 -248 -228 -155 -646 167
-754 54 -17 82 -21 163 -17 88 3 104 7 172 40 93 46 167 122 211 215 43 92 50
226 18 331 -65 215 -301 350 -521 299z m-120 -87 c-35 -24 -54 -31 -30 -11 14
11 30 21 35 21 6 0 3 -5 -5 -10z m515 -39 c3 -5 0 -13 -6 -17 -7 -4 -9 -3 -5
4 3 5 0 13 -6 15 -9 4 -10 6 -1 6 6 1 14 -3 18 -8z m-628 -66 c0 -8 -4 -12 -9
-9 -5 3 -6 10 -3 15 9 13 12 11 12 -6z m27 -1 c3 -8 2 -12 -4 -9 -6 3 -10 10
-10 16 0 14 7 11 14 -7z m-71 -69 c-3 -9 -8 -14 -10 -11 -3 3 -2 9 2 15 9 16
15 13 8 -4z m768 -102 c-12 -20 -14 -14 -5 12 4 9 9 14 11 11 3 -2 0 -13 -6
-23z m-804 -5 c-3 -8 -6 -5 -6 6 -1 11 2 17 5 13 3 -3 4 -12 1 -19z m30 -240
c-3 -8 -6 -5 -6 6 -1 11 2 17 5 13 3 -3 4 -12 1 -19z m744 -61 c-10 -9 -11 -8
-5 6 3 10 9 15 12 12 3 -3 0 -11 -7 -18z m-40 -50 c-10 -9 -11 -8 -5 6 3 10 9
15 12 12 3 -3 0 -11 -7 -18z m-26 -7 c-1 -11 -4 -22 -7 -25 -4 -5 -4 34 1 43
4 8 7 -1 6 -18z m-491 -79 c-2 -3 -12 3 -22 13 -16 17 -16 18 5 5 12 -7 20
-15 17 -18z m441 19 c-3 -5 -12 -10 -18 -10 -7 0 -6 4 3 10 19 12 23 12 15 0z"/>
<path d="M19771 13734 c0 -11 3 -14 6 -6 3 7 2 16 -1 19 -3 4 -6 -2 -5 -13z"/>
<path d="M19802 13725 c0 -16 2 -22 5 -12 2 9 2 23 0 30 -3 6 -5 -1 -5 -18z"/>
<path d="M24025 13690 c-3 -6 1 -7 9 -4 18 7 21 14 7 14 -6 0 -13 -4 -16 -10z"/>
<path d="M19821 13664 c0 -11 3 -14 6 -6 3 7 2 16 -1 19 -3 4 -6 -2 -5 -13z"/>
<path d="M19749 13483 c-13 -16 -12 -17 4 -4 9 7 17 15 17 17 0 8 -8 3 -21
-13z"/>
<path d="M7224 13471 c-32 -20 -64 -74 -64 -111 0 -37 32 -91 64 -111 65 -40
158 -13 190 55 20 42 20 67 2 111 -29 68 -126 96 -192 56z"/>
<path d="M7589 13451 c-35 -35 -39 -44 -39 -90 0 -44 5 -56 33 -87 107 -117
293 25 204 157 -29 43 -60 59 -116 59 -37 0 -49 -5 -82 -39z"/>
<path d="M8019 13467 c-22 -15 -39 -38 -49 -65 -13 -37 -13 -47 0 -84 28 -80
123 -113 195 -68 30 19 44 41 60 98 9 31 -28 103 -64 125 -41 24 -101 22 -142
-6z"/>
<path d="M19710 13445 c-7 -9 -11 -17 -9 -20 3 -2 10 5 17 15 14 24 10 26 -8
5z"/>
<path d="M20602 13385 c0 -16 2 -22 5 -12 2 9 2 23 0 30 -3 6 -5 -1 -5 -18z"/>
<path d="M19630 13365 c-7 -9 -11 -17 -9 -20 3 -2 10 5 17 15 14 24 10 26 -8
5z"/>
<path d="M19661 13356 c-7 -8 -8 -17 -3 -20 6 -3 12 3 15 14 6 24 4 25 -12 6z"/>
<path d="M22871 13354 c0 -11 3 -14 6 -6 3 7 2 16 -1 19 -3 4 -6 -2 -5 -13z"/>
<path d="M20583 13310 c0 -25 2 -35 4 -22 2 12 2 32 0 45 -2 12 -4 2 -4 -23z"/>
<path d="M20602 13315 c0 -16 2 -22 5 -12 2 9 2 23 0 30 -3 6 -5 -1 -5 -18z"/>
<path d="M19550 13285 c-7 -9 -11 -17 -9 -20 3 -2 10 5 17 15 14 24 10 26 -8
5z"/>
<path d="M19470 13205 c-7 -9 -11 -17 -9 -20 3 -2 10 5 17 15 14 24 10 26 -8
5z"/>
<path d="M19501 13196 c-7 -8 -8 -17 -3 -20 6 -3 12 3 15 14 6 24 4 25 -12 6z"/>
<path d="M20565 13201 c-3 -5 -2 -12 3 -15 5 -3 9 1 9 9 0 17 -3 19 -12 6z"/>
<path d="M20530 13130 c-6 -11 -8 -20 -6 -20 3 0 10 9 16 20 6 11 8 20 6 20
-3 0 -10 -9 -16 -20z"/>
<path d="M19390 13125 c-7 -9 -11 -17 -9 -20 3 -2 10 5 17 15 14 24 10 26 -8
5z"/>
<path d="M20499 13083 c-13 -16 -12 -17 4 -4 16 13 21 21 13 21 -2 0 -10 -8
-17 -17z"/>
<path d="M19310 13045 c-7 -9 -11 -17 -9 -20 3 -2 10 5 17 15 14 24 10 26 -8
5z"/>
<path d="M19341 13036 c-7 -8 -8 -17 -3 -20 6 -3 12 3 15 14 6 24 4 25 -12 6z"/>
<path d="M20416 13031 c-3 -4 4 -7 14 -6 27 2 33 10 10 12 -11 1 -22 -2 -24
-6z"/>
<path d="M19249 12983 l-24 -28 28 24 c15 14 27 26 27 28 0 8 -8 1 -31 -24z"/>
<path d="M20331 12947 c-8 -10 -7 -14 2 -14 8 0 14 6 14 14 0 7 -1 13 -2 13
-2 0 -8 -6 -14 -13z"/>
<path d="M19204 12934 c-18 -14 -18 -15 4 -4 12 6 22 13 22 15 0 8 -5 6 -26
-11z"/>
<path d="M20316 12908 c3 -5 10 -6 15 -3 13 9 11 12 -6 12 -8 0 -12 -4 -9 -9z"/>
<path d="M19160 12895 c-11 -13 -10 -14 4 -9 9 3 16 10 16 15 0 13 -6 11 -20
-6z"/>
<path d="M19110 12844 c-17 -15 -29 -28 -27 -31 2 -2 19 10 37 27 40 37 33 40
-10 4z"/>
<path d="M20253 12863 c4 -3 1 -13 -6 -22 -11 -14 -10 -14 5 -2 16 12 16 31 1
31 -4 0 -3 -3 0 -7z"/>
<path d="M20205 12820 c-3 -5 -2 -10 4 -10 5 0 13 5 16 10 3 6 2 10 -4 10 -5
0 -13 -4 -16 -10z"/>
<path d="M20180 12791 c-8 -6 -18 -7 -24 -4 -5 3 -6 1 -2 -5 5 -9 13 -9 27 -2
10 6 19 13 19 15 0 7 -3 6 -20 -4z"/>
<path d="M4568 12774 c-115 -27 -218 -97 -278 -186 -21 -32 -41 -71 -45 -88
-4 -16 -8 -30 -10 -30 -2 0 -27 12 -57 28 -47 24 -64 27 -143 26 -115 -1 -186
-27 -250 -91 -61 -61 -103 -146 -160 -328 -25 -82 -64 -183 -86 -223 -32 -58
-38 -76 -29 -91 13 -26 41 -34 74 -22 14 6 26 9 26 8 0 -2 -9 -21 -20 -42
l-20 -40 67 -3 68 -3 22 -122 c32 -175 39 -196 68 -202 14 -3 37 -7 51 -11 27
-5 63 -37 99 -86 65 -88 144 -11 209 203 53 175 76 320 76 485 l0 152 42 37
c61 52 132 83 239 105 115 24 156 25 231 4 74 -21 125 -66 216 -188 88 -117
169 -190 268 -243 72 -37 218 -83 267 -83 19 0 19 -7 13 -167 -16 -441 -18
-518 -13 -513 3 3 30 103 60 222 50 198 59 224 108 309 30 50 61 95 69 100 8
4 38 18 65 31 68 31 140 105 175 180 37 78 39 103 8 94 -53 -15 -117 -18 -152
-6 -43 14 -44 19 -11 50 26 25 41 76 31 108 -6 18 -11 19 -43 10 -80 -22 -144
20 -242 159 -53 76 -225 255 -300 313 -73 55 -133 85 -233 114 -154 44 -349
57 -460 30z"/>
<path d="M19044 12774 c-18 -14 -18 -15 4 -4 12 6 22 13 22 15 0 8 -5 6 -26
-11z"/>
<path d="M20130 12750 c-9 -6 -10 -10 -3 -10 6 0 15 5 18 10 8 12 4 12 -15 0z"/>
<path d="M19000 12735 c-11 -13 -10 -14 4 -9 9 3 16 10 16 15 0 13 -6 11 -20
-6z"/>
<path d="M18950 12684 c-17 -15 -29 -28 -27 -31 2 -2 19 10 37 27 40 37 33 40
-10 4z"/>
<path d="M20007 12699 c7 -7 15 -10 18 -7 3 3 -2 9 -12 12 -14 6 -15 5 -6 -5z"/>
<path d="M18884 12614 c-18 -14 -18 -15 4 -4 12 6 22 13 22 15 0 8 -5 6 -26
-11z"/>
<path d="M18840 12575 c-11 -13 -10 -14 4 -9 9 3 16 10 16 15 0 13 -6 11 -20
-6z"/>
<path d="M19780 12550 c-8 -5 -10 -10 -5 -10 6 0 17 5 25 10 8 5 11 10 5 10
-5 0 -17 -5 -25 -10z"/>
<path d="M19835 12551 c-3 -5 0 -13 6 -17 8 -5 9 -3 4 6 -6 10 -4 12 9 7 10
-4 15 -3 11 3 -8 13 -22 13 -30 1z"/>
<path d="M18790 12524 c-17 -15 -29 -28 -27 -31 2 -2 19 10 37 27 40 37 33 40
-10 4z"/>
<path d="M19800 12529 c0 -5 5 -7 10 -4 6 3 10 8 10 11 0 2 -4 4 -10 4 -5 0
-10 -5 -10 -11z"/>
<path d="M19766 12515 c4 -8 11 -15 16 -15 6 0 5 6 -2 15 -7 8 -14 15 -16 15
-2 0 -1 -7 2 -15z"/>
<path d="M8206 12489 c-106 -25 -202 -104 -249 -206 l-22 -48 0 -1365 0 -1365
29 -58 c35 -67 93 -124 168 -164 l53 -28 2950 -1 2950 -1 -2932 9 c-2890 8
-2933 8 -2985 28 -95 35 -168 114 -202 216 -15 46 -16 163 -14 1385 l3 1334
26 55 c44 92 124 159 224 185 53 13 387 15 3055 15 3286 0 3042 5 3142 -59 58
-37 113 -110 133 -176 12 -42 16 -250 23 -1310 l9 -1260 -1 1275 -1 1275 -29
62 c-49 107 -145 181 -261 202 -74 14 -6010 14 -6069 0z"/>
<path d="M18724 12454 c-18 -14 -18 -15 4 -4 12 6 22 13 22 15 0 8 -5 6 -26
-11z"/>
<path d="M19717 12459 c-9 -5 -22 -7 -27 -4 -6 3 -10 4 -10 1 0 -3 10 -10 21
-17 17 -9 20 -8 14 2 -6 8 -4 11 7 7 9 -4 15 0 15 8 0 8 -1 14 -1 14 -1 0 -9
-5 -19 -11z"/>
<path d="M18680 12415 c-11 -13 -10 -14 4 -9 9 3 16 10 16 15 0 13 -6 11 -20
-6z"/>
<path d="M19683 12415 c0 -8 4 -12 9 -9 5 3 6 10 3 15 -9 13 -12 11 -12 -6z"/>
<path d="M18630 12364 c-17 -15 -29 -28 -27 -31 2 -2 19 10 37 27 40 37 33 40
-10 4z"/>
<path d="M19565 12340 c-3 -5 -2 -10 4 -10 5 0 13 5 16 10 3 6 2 10 -4 10 -5
0 -13 -4 -16 -10z"/>
<path d="M18564 12294 c-18 -14 -18 -15 4 -4 12 6 22 13 22 15 0 8 -5 6 -26
-11z"/>
<path d="M19484 12278 l-19 -23 23 19 c12 11 22 21 22 23 0 8 -8 2 -26 -19z"/>
<path d="M18520 12255 c-11 -13 -10 -14 4 -9 9 3 16 10 16 15 0 13 -6 11 -20
-6z"/>
<path d="M19380 12230 c-9 -6 -10 -10 -3 -10 6 0 15 5 18 10 8 12 4 12 -15 0z"/>
<path d="M18470 12204 c-17 -15 -29 -28 -27 -31 2 -2 19 10 37 27 40 37 33 40
-10 4z"/>
<path d="M19205 12150 c-3 -6 1 -7 9 -4 18 7 21 14 7 14 -6 0 -13 -4 -16 -10z"/>
<path d="M18382 12115 c-20 -19 -34 -35 -30 -35 4 0 23 16 44 35 20 19 34 35
30 35 -3 0 -23 -16 -44 -35z"/>
<path d="M19280 12140 c-9 -6 -10 -10 -3 -10 6 0 15 5 18 10 8 12 4 12 -15 0z"/>
<path d="M26262 12120 c0 -14 2 -19 5 -12 2 6 2 18 0 25 -3 6 -5 1 -5 -13z"/>
<path d="M19236 12115 c-11 -8 -15 -15 -9 -15 6 0 16 7 23 15 16 19 11 19 -14
0z"/>
<path d="M26246 12075 c-9 -26 -7 -32 5 -12 6 10 9 21 6 23 -2 3 -7 -2 -11
-11z"/>
<path d="M19127 12069 c7 -7 15 -10 18 -7 3 3 -2 9 -12 12 -14 6 -15 5 -6 -5z"/>
<path d="M18325 12060 c-3 -5 -2 -10 4 -10 5 0 13 5 16 10 3 6 2 10 -4 10 -5
0 -13 -4 -16 -10z"/>
<path d="M18273 12017 l-18 -22 23 20 c18 15 25 16 31 6 7 -10 9 -10 14 1 8
23 -29 19 -50 -5z"/>
<path d="M26169 11953 l-34 -38 38 34 c20 19 37 36 37 38 0 8 -8 0 -41 -34z"/>
<path d="M18974 11966 c24 -19 32 -20 42 -4 4 7 3 8 -4 4 -6 -4 -22 -2 -34 4
-22 11 -22 10 -4 -4z"/>
<path d="M18216 11957 c3 -10 9 -15 12 -12 3 3 0 11 -7 18 -10 9 -11 8 -5 -6z"/>
<path d="M18173 11933 c-10 -10 -13 -14 -6 -10 6 5 16 6 21 3 5 -3 9 1 9 9 0
19 -1 19 -24 -2z"/>
<path d="M18070 11846 c6 -6 18 -5 32 1 21 10 21 10 -9 9 -19 -1 -28 -5 -23
-10z"/>
<path d="M18727 11822 c4 -10 9 -10 22 0 9 7 17 13 19 14 2 1 -8 1 -21 0 -15
0 -23 -6 -20 -14z"/>
<path d="M18010 11820 c-9 -6 -10 -10 -3 -10 6 0 15 5 18 10 8 12 4 12 -15 0z"/>
<path d="M18740 11800 c-9 -6 -10 -10 -3 -10 6 0 15 5 18 10 8 12 4 12 -15 0z"/>
<path d="M4514 11789 c-31 -9 -61 -35 -52 -45 3 -2 50 -9 104 -14 55 -5 118
-12 142 -16 48 -8 53 2 18 35 -44 42 -142 60 -212 40z"/>
<path d="M17985 11790 c5 -9 2 -10 -13 -6 -11 4 -23 3 -25 -2 -6 -9 38 -10 48
-1 3 4 1 10 -6 15 -8 5 -10 3 -4 -6z"/>
<path d="M18680 11745 c-7 -9 -18 -14 -24 -12 -7 3 -12 -4 -12 -14 0 -16 4
-15 28 8 15 15 28 28 28 30 0 7 -8 2 -20 -12z"/>
<path d="M17865 11730 c-4 -6 1 -7 11 -3 10 4 15 2 11 -3 -3 -5 3 -10 14 -10
19 0 19 1 3 13 -21 16 -31 16 -39 3z"/>
<path d="M17825 11700 c6 -10 4 -12 -11 -6 -15 6 -17 5 -6 -5 9 -9 15 -10 23
-2 8 8 7 13 -2 18 -8 6 -10 4 -4 -5z"/>
<path d="M5176 11654 c-15 -9 -24 -19 -20 -23 11 -9 264 -34 271 -27 10 10
-11 29 -51 47 -52 23 -159 25 -200 3z"/>
<path d="M16135 11588 c-40 -14 -94 -65 -111 -105 -12 -27 -14 -328 -14 -1865
0 -1779 1 -1834 19 -1875 12 -26 35 -52 62 -70 l43 -28 2115 0 c1164 0 1869 1
1566 3 -302 1 -1255 6 -2116 10 l-1566 7 -35 27 c-74 56 -68 -112 -68 1928 0
1978 -3 1856 52 1907 58 54 36 53 852 53 492 0 757 3 761 10 9 14 -1519 12
-1560 -2z"/>
<path d="M18535 11590 c-4 -7 367 -10 1107 -10 697 0 1126 -4 1147 -10 39 -11
85 -51 109 -95 16 -28 17 -179 22 -1850 l5 -1820 3 1823 c2 1792 2 1823 -18
1861 -24 48 -70 87 -118 101 -50 14 -2248 14 -2257 0z"/>
<path d="M4528 11561 c-41 -9 -88 -36 -88 -52 0 -7 11 -9 28 -5 83 18 118 18
177 -3 73 -26 78 -26 65 -2 -24 46 -111 75 -182 62z"/>
<path d="M4920 11509 c0 -28 32 -178 76 -362 25 -104 43 -191 39 -195 -4 -4
-41 -9 -83 -12 l-77 -6 67 -8 c84 -10 114 -3 122 28 6 25 -48 267 -103 455
-29 100 -41 129 -41 100z"/>
<path d="M17645 11508 c4 -9 -1 -18 -9 -21 -9 -4 -16 -12 -16 -19 0 -10 2 -10
9 1 6 9 11 10 15 2 4 -6 5 -15 2 -19 -3 -5 1 -9 8 -9 8 0 12 7 8 15 -3 9 -1
13 5 9 16 -10 4 30 -13 44 -12 9 -13 9 -9 -3z"/>
<path d="M5185 11488 c-31 -17 -55 -40 -50 -48 2 -4 26 -2 53 5 57 15 106 11
173 -14 35 -14 49 -16 49 -7 0 17 -40 53 -73 65 -37 14 -126 14 -152 -1z"/>
<path d="M18409 11480 c-1 -5 -2 -16 -3 -22 -1 -7 -5 -17 -11 -21 -6 -5 -5 -7
4 -5 8 2 15 16 17 31 2 25 -4 40 -7 17z"/>
<path d="M17757 11416 c-20 -25 -37 -50 -37 -56 0 -6 -6 -8 -12 -4 -7 4 -10 4
-6 -1 9 -10 -30 -87 -41 -80 -5 2 -8 -3 -7 -13 0 -9 -4 -16 -11 -15 -8 2 -10
-4 -6 -14 4 -11 3 -14 -5 -9 -11 6 -17 -5 -13 -27 1 -4 -8 -34 -19 -67 -11
-33 -20 -68 -20 -79 0 -32 -59 -150 -82 -162 -30 -16 -68 6 -68 41 0 14 9 77
21 140 21 117 45 189 63 192 56 8 -238 15 -695 17 l-556 1 -6 -57 c-3 -31 -6
-273 -6 -537 -1 -265 -4 -995 -7 -1622 l-7 -1142 784 -6 c431 -3 1437 -8 2235
-12 l1451 -6 6 714 c8 750 11 2638 5 2643 -2 1 -551 5 -1220 9 l-1217 7 -17
-28 c-10 -15 -23 -32 -29 -38 -10 -9 -67 -88 -123 -172 -13 -19 -27 -31 -34
-27 -7 4 -8 3 -4 -5 9 -14 -62 -114 -75 -105 -5 3 -9 0 -9 -5 0 -16 -15 -13
-39 7 -21 17 -21 18 -4 61 14 36 18 40 25 25 7 -15 7 -14 4 5 -3 13 1 30 9 38
8 7 12 20 8 28 -3 8 3 27 13 43 10 15 18 34 19 42 0 8 5 14 12 13 7 -2 10 4 7
15 -5 14 -3 14 10 -2 17 -21 22 -11 7 13 -6 9 2 32 25 70 19 31 34 62 34 69 0
23 -18 12 -35 -20 -38 -74 -41 -78 -53 -66 -9 9 -12 9 -12 1 0 -7 5 -15 10
-18 6 -4 7 -11 4 -17 -4 -6 -10 -5 -16 3 -8 11 -8 10 -4 -4 6 -18 -10 -56 -29
-69 -5 -4 -10 -13 -10 -20 -3 -58 -105 -294 -144 -335 -28 -29 -45 -29 -65 2
-19 29 -19 35 -5 72 7 15 13 35 14 43 1 8 11 44 23 80 73 218 94 292 84 302
-7 7 -14 3 -23 -13 -6 -13 -33 -50 -60 -84 -35 -45 -50 -74 -57 -115 -15 -78
-57 -206 -73 -223 -30 -29 -57 -38 -82 -26 -28 12 -26 45 2 52 14 4 14 5 -1 6
-18 1 -26 31 -8 31 5 0 7 13 3 32 -4 22 -3 29 5 24 8 -5 10 -2 6 9 -9 23 36
206 49 198 6 -4 8 0 4 11 -4 10 3 32 17 54 13 20 23 39 22 42 0 3 10 20 23 38
19 28 25 31 39 20 13 -12 14 -10 3 10 -11 20 -8 26 12 23 5 -1 6 3 3 8 -4 5 7
25 24 44 26 30 30 47 10 47 -3 0 -22 -20 -43 -44z"/>
<path d="M18330 11409 c0 -5 5 -7 10 -4 6 3 10 8 10 11 0 2 -4 4 -10 4 -5 0
-10 -5 -10 -11z"/>
<path d="M18345 11380 c-3 -5 -1 -10 4 -10 6 0 11 5 11 10 0 6 -2 10 -4 10 -3
0 -8 -4 -11 -10z"/>
<path d="M17542 11325 c-17 -37 -14 -45 4 -12 9 16 14 31 11 33 -2 2 -9 -7
-15 -21z"/>
<path d="M4622 11304 c-15 -10 -22 -25 -22 -48 0 -40 15 -56 55 -56 58 0 85
60 45 100 -24 24 -48 25 -78 4z"/>
<path d="M17734 11300 c0 -13 4 -16 10 -10 7 7 7 13 0 20 -6 6 -10 3 -10 -10z"/>
<path d="M18287 11313 c-4 -3 -7 -11 -7 -17 0 -6 5 -5 12 2 6 6 9 14 7 17 -3
3 -9 2 -12 -2z"/>
<path d="M22008 11273 c7 -3 16 -2 19 1 4 3 -2 6 -13 5 -11 0 -14 -3 -6 -6z"/>
<path d="M5251 11247 c-69 -35 -24 -133 49 -105 30 11 40 25 40 60 0 17 -9 33
-22 42 -27 19 -36 19 -67 3z"/>
<path d="M21910 11229 c-22 -18 -22 -19 -3 -10 12 6 25 16 28 21 9 15 3 12
-25 -11z"/>
<path d="M17882 11175 c0 -16 2 -22 5 -12 2 9 2 23 0 30 -3 6 -5 -1 -5 -18z"/>
<path d="M17661 11144 c0 -11 3 -14 6 -6 3 7 2 16 -1 19 -3 4 -6 -2 -5 -13z"/>
<path d="M17565 11110 c3 -5 8 -10 11 -10 2 0 4 5 4 10 0 6 -5 10 -11 10 -5 0
-7 -4 -4 -10z"/>
<path d="M17632 11065 c0 -16 2 -22 5 -12 2 9 2 23 0 30 -3 6 -5 -1 -5 -18z"/>
<path d="M17527 11029 c4 -13 8 -18 11 -10 2 7 -1 18 -6 23 -8 8 -9 4 -5 -13z"/>
<path d="M17831 11034 c0 -11 3 -14 6 -6 3 7 2 16 -1 19 -3 4 -6 -2 -5 -13z"/>
<path d="M17936 11035 c-9 -26 -7 -32 5 -12 6 10 9 21 6 23 -2 3 -7 -2 -11
-11z"/>
<path d="M17812 10964 c-7 -8 -8 -14 -3 -14 10 0 25 19 20 25 -2 1 -10 -3 -17
-11z"/>
<path d="M17821 10914 c0 -11 3 -14 6 -6 3 7 2 16 -1 19 -3 4 -6 -2 -5 -13z"/>
<path d="M17801 10874 c0 -11 3 -14 6 -6 3 7 2 16 -1 19 -3 4 -6 -2 -5 -13z"/>
<path d="M4671 10851 c-1 -45 31 -112 66 -137 49 -36 133 -57 133 -34 0 6 -9
10 -20 10 -34 0 -97 37 -123 72 -14 18 -31 53 -40 78 l-15 45 -1 -34z"/>
<path d="M17856 10865 c-9 -26 -7 -32 5 -12 6 10 9 21 6 23 -2 3 -7 -2 -11
-11z"/>
<path d="M22795 10373 c-41 -9 -68 -29 -82 -60 -10 -26 -13 -151 -13 -623 0
-392 3 -589 10 -585 6 4 10 133 10 353 0 191 3 459 7 597 6 242 7 250 29 272
31 31 84 31 121 -1 l28 -24 3 -611 c1 -389 6 -611 12 -611 6 0 10 221 10 616
l0 616 -29 29 c-16 16 -36 29 -44 29 -9 0 -21 2 -29 4 -7 2 -22 2 -33 -1z"/>
<path d="M23590 10373 c-8 -2 -26 -10 -38 -16 -54 -26 -52 12 -52 -1054 0
-645 3 -984 10 -977 6 6 11 367 12 993 l3 983 28 24 c37 32 87 32 124 0 l28
-24 3 -976 c1 -633 6 -976 12 -976 7 0 10 340 10 973 0 945 -1 973 -20 1004
-13 21 -31 35 -57 42 -41 12 -41 12 -63 4z"/>
<path d="M24372 10369 c-20 -6 -40 -22 -52 -42 -18 -30 -20 -51 -20 -289 0
-157 4 -258 10 -258 5 0 10 104 12 261 l3 261 28 24 c30 26 75 31 109 13 43
-23 49 -64 48 -321 -1 -159 2 -244 9 -251 8 -8 11 67 11 257 0 229 -2 272 -16
295 -28 48 -83 67 -142 50z"/>
<path d="M3690 10045 c0 -14 85 -77 395 -293 82 -57 155 -107 162 -109 7 -3
11 -8 8 -12 -2 -4 2 -8 8 -8 7 0 67 -36 134 -81 66 -45 125 -82 129 -82 5 0
52 43 105 96 l96 95 46 -35 c48 -37 86 -50 51 -18 -34 31 -91 72 -100 72 -5 0
-52 -41 -104 -90 l-94 -89 -28 17 c-15 9 -101 67 -190 128 -171 116 -584 395
-605 408 -7 4 -13 4 -13 1z"/>
<path d="M3586 9562 c-3 -6 9 -23 28 -39 47 -39 269 -294 351 -404 20 -26 132
-166 164 -204 84 -101 131 -167 125 -177 -4 -6 -3 -8 3 -5 6 4 61 -57 122
-136 124 -158 293 -375 331 -427 14 -18 53 -70 88 -114 34 -45 65 -86 70 -91
4 -6 24 -32 45 -58 22 -26 35 -52 31 -58 -4 -7 -3 -9 4 -5 6 3 15 -1 20 -11 9
-15 53 -17 613 -15 332 2 737 5 900 8 l297 6 9 -27 8 -26 33 46 32 46 0 132 0
132 -141 -142 -140 -143 -287 0 c-158 0 -481 -3 -718 -6 l-431 -7 -6 399 c-5
391 -25 718 -62 1034 -8 69 -15 131 -15 138 0 6 -3 12 -8 12 -4 0 -2 -73 5
-162 28 -378 34 -477 47 -753 8 -159 18 -374 21 -477 l7 -188 -69 0 c-75 1
-61 -9 -146 104 -12 16 -44 57 -72 92 -27 34 -113 145 -190 245 -77 99 -205
263 -285 364 -80 101 -153 194 -163 208 -10 14 -36 45 -58 69 -21 24 -39 46
-39 50 0 4 -8 14 -17 24 -10 10 -29 32 -43 50 -22 28 -130 158 -218 264 -113
135 -239 264 -246 252z"/>
<path d="M14552 9540 c0 -14 2 -19 5 -12 2 6 2 18 0 25 -3 6 -5 1 -5 -13z"/>
<path d="M14517 9445 c-9 -19 -36 -57 -59 -83 -42 -46 -42 -47 -4 -12 37 35
93 117 84 125 -2 3 -12 -11 -21 -30z"/>
<path d="M24508 9413 c-2 -5 -1 -568 2 -1253 5 -1128 6 -1198 13 -746 10 716
9 2006 -2 2006 -6 0 -11 -3 -13 -7z"/>
<path d="M24301 8318 c1 -601 4 -1131 8 -1178 5 -47 9 442 9 1087 1 772 -1
1174 -8 1178 -7 4 -10 -360 -9 -1087z"/>
<path d="M8015 9101 c-22 -10 -50 -29 -62 -42 -12 -13 -116 -215 -231 -449
-195 -396 -264 -552 -250 -565 3 -3 140 -8 304 -11 165 -3 324 -10 353 -15 62
-10 114 -50 109 -83 -3 -21 -67 -50 -180 -81 l-58 -16 0 -42 c-1 -62 -28 -113
-85 -155 -39 -30 -51 -46 -58 -77 -19 -95 -31 -127 -51 -140 -18 -13 19 -15
323 -15 378 0 376 0 417 63 12 18 84 149 161 292 77 143 265 490 417 771 152
282 276 521 276 531 0 11 -8 27 -18 36 -17 15 -78 17 -673 17 -614 0 -656 -2
-694 -19z m616 -300 c20 -16 22 -23 14 -47 -11 -31 -38 -40 -81 -30 -32 8 -34
58 -2 80 29 21 41 20 69 -3z"/>
<path d="M22911 8038 c1 -398 5 -786 8 -863 4 -79 8 238 9 723 1 569 -1 862
-8 862 -7 0 -10 -247 -9 -722z"/>
<path d="M22707 8723 c-8 -8 -7 -632 2 -1318 7 -455 7 -425 9 418 1 499 1 907
-1 907 -2 0 -7 -3 -10 -7z"/>
<path d="M9340 8404 c-102 -27 -184 -95 -231 -190 l-24 -49 0 -1520 0 -1520
28 -53 c55 -105 149 -174 258 -191 30 -4 1301 -5 2824 -1 l2770 6 -2775 2
c-3059 2 -2839 -3 -2942 64 -59 37 -101 89 -128 157 -20 52 -20 57 -18 1549
l3 1497 25 50 c34 69 108 139 177 167 l58 23 2895 0 2895 0 58 -27 c77 -36
149 -112 178 -185 l22 -58 7 -1465 7 -1465 -1 1480 -1 1480 -28 56 c-30 63
-103 136 -165 168 -23 12 -72 25 -109 31 -43 6 -1095 9 -2898 9 -2457 0 -2837
-2 -2885 -15z"/>
<path d="M23505 7460 c4 -300 10 -548 13 -552 4 -4 6 237 4 535 -1 360 -6 545
-13 552 -7 7 -8 -156 -4 -535z"/>
<path d="M23712 7488 c1 -351 4 -438 8 -318 12 271 11 800 0 800 -7 0 -9 -166
-8 -482z"/>
<path d="M27600 7651 c0 -6 8 -29 17 -53 16 -41 16 -42 -8 -57 -63 -39 -148
-140 -189 -224 l-42 -87 -51 -1 c-38 0 -47 -3 -32 -9 11 -5 33 -9 49 -9 22 -1
27 -5 23 -18 -20 -67 -98 -366 -118 -448 -12 -55 -24 -101 -25 -103 -1 -2 -29
10 -63 27 -33 17 -66 31 -73 31 -19 -1 30 -35 85 -61 31 -15 46 -28 42 -36 -2
-8 -28 -120 -55 -251 -28 -130 -56 -240 -63 -244 -7 -4 -21 -8 -32 -8 -11 0
-27 -5 -35 -10 -11 -7 -4 -10 28 -10 23 0 42 -4 42 -9 0 -4 -11 -66 -24 -137
-13 -71 -29 -163 -36 -204 -17 -110 -16 -108 -55 -70 -49 48 -55 30 -7 -22
l40 -43 -18 -110 c-10 -60 -21 -131 -24 -157 l-7 -46 -49 -7 c-30 -4 -47 -11
-44 -17 4 -6 23 -8 45 -4 36 6 39 4 39 -17 0 -29 -49 -420 -52 -421 -2 -1 -27
-13 -56 -26 -29 -13 -56 -28 -58 -32 -7 -11 43 1 79 19 16 8 31 13 33 11 2 -2
-3 -62 -11 -134 -7 -71 -17 -175 -21 -231 l-7 -102 370 -1 370 0 18 67 c33
124 28 119 81 65 50 -52 49 -43 -4 31 l-35 48 56 212 c30 117 61 237 67 267
14 62 22 70 67 70 17 0 35 5 38 10 4 6 -11 10 -39 10 l-44 0 14 63 c8 34 29
127 45 207 17 80 32 146 34 148 2 2 24 -4 50 -13 61 -24 66 -14 8 16 -57 29
-57 8 -9 269 20 107 38 209 41 227 l6 32 54 -25 c80 -37 90 -24 14 16 l-65 33
34 216 c18 119 37 222 40 229 4 7 45 26 91 42 47 17 90 35 95 41 14 13 -25 5
-117 -26 l-68 -23 6 31 c14 84 55 391 61 458 l7 77 61 -4 61 -4 -40 14 c-22 8
-50 15 -62 15 -20 1 -23 6 -23 44 -1 40 -9 92 -24 148 -6 22 -3 28 24 39 61
25 41 39 -23 14 -10 -3 -23 10 -41 40 -15 26 -44 65 -66 87 l-39 41 25 40 c36
57 24 70 -15 16 l-33 -46 -42 19 c-51 23 -156 25 -216 4 -24 -8 -44 -14 -44
-13 -1 2 -11 20 -21 41 -21 40 -35 56 -35 38z"/>
<path d="M12640 7280 l0 -91 618 3 617 3 3 88 3 87 -621 0 -620 0 0 -90z"/>
<path d="M14050 7280 l0 -90 235 0 235 0 0 90 0 90 -235 0 -235 0 0 -90z"/>
<path d="M19010 7181 c-96 -19 -182 -83 -231 -173 l-34 -63 0 -1035 0 -1035
33 -67 c37 -75 88 -124 168 -160 45 -21 67 -23 249 -26 110 -2 490 0 845 4
l645 9 -845 5 c-837 5 -845 5 -891 26 -67 31 -124 87 -156 152 l-28 57 -3
1000 c-3 1149 -8 1084 81 1181 27 30 66 63 86 74 79 40 117 41 1171 38 l1015
-3 68 -33 c49 -24 79 -48 107 -83 72 -91 70 -62 71 -928 1 -427 5 -868 9 -981
3 -113 6 245 6 795 l-1 1000 -22 47 c-49 106 -138 178 -247 197 -67 12 -2036
14 -2096 2z"/>
<path d="M23710 6937 c0 -12 -7 -34 -16 -47 l-16 -25 21 24 c18 20 30 71 16
71 -3 0 -5 -10 -5 -23z"/>
<path d="M9760 6860 l0 -90 235 0 235 0 0 90 0 90 -235 0 -235 0 0 -90z"/>
<path d="M11900 6865 l0 -84 343 -3 c188 -2 348 -1 355 1 8 2 12 28 12 87 l0
84 -355 0 -355 0 0 -85z"/>
<path d="M22910 6931 c0 -10 -9 -31 -21 -47 l-21 -29 26 28 c22 24 36 67 21
67 -3 0 -5 -8 -5 -19z"/>
<path d="M24311 6929 c-1 -9 7 -25 17 -36 9 -10 14 -14 10 -8 -4 6 -12 22 -17
36 -6 15 -10 18 -10 8z"/>
<path d="M19330 6340 l0 -240 35 0 c32 0 35 3 35 29 0 41 33 142 63 194 31 52
81 99 139 128 40 21 164 48 221 49 l27 0 0 -670 c0 -588 -2 -674 -16 -709 -21
-52 -48 -69 -139 -83 -73 -11 -75 -12 -75 -40 l0 -28 425 0 425 0 0 29 c0 29
-2 30 -62 36 -87 10 -129 32 -153 80 -19 39 -20 59 -20 710 l0 670 28 3 c53 6
190 -28 245 -61 87 -52 155 -166 177 -294 6 -41 9 -43 41 -43 l34 0 0 240 0
240 -715 0 -715 0 0 -240z"/>
<path d="M11670 6430 l0 -90 358 2 357 3 3 88 3 87 -361 0 -360 0 0 -90z"/>
<path d="M12640 6430 l0 -91 618 3 617 3 3 88 3 87 -621 0 -620 0 0 -90z"/>
<path d="M14050 6430 l0 -90 235 0 235 0 0 90 0 90 -235 0 -235 0 0 -90z"/>
<path d="M26275 6326 c-28 -12 -65 -40 -84 -61 -42 -48 -87 -142 -100 -209
-53 -264 -66 -1012 -25 -1466 l5 -55 -61 -42 c-55 -39 -74 -63 -51 -63 5 0 32
18 60 40 28 22 52 40 55 40 2 0 7 -35 10 -77 4 -43 10 -86 12 -95 5 -17 28
-18 298 -18 l293 0 6 53 c25 206 31 905 9 941 -3 5 2 6 11 3 10 -4 24 -10 33
-14 15 -5 15 -4 0 20 -10 14 -23 28 -30 30 -9 4 -16 33 -20 84 -11 124 -27
276 -31 299 -4 20 -1 21 48 18 52 -4 52 -4 22 11 -16 8 -40 14 -52 15 -17 0
-23 7 -27 33 -8 52 -46 270 -52 297 -4 21 1 28 30 44 35 19 47 36 26 36 -6 0
-25 -7 -41 -16 -17 -8 -32 -14 -33 -12 -1 2 -10 21 -20 44 -55 126 -173 175
-291 120z"/>
<path d="M3905 6298 c-417 -102 -976 -197 -1367 -233 -43 -4 -78 -12 -78 -17
0 -5 15 -7 33 -4 17 3 77 8 132 11 235 14 585 65 905 131 174 36 477 113 545
138 74 27 -2 16 -170 -26z"/>
<path d="M9730 5995 c0 -61 3 -85 13 -85 6 0 284 0 617 -1 l605 -1 3 86 3 86
-621 0 -620 0 0 -85z"/>
<path d="M25780 5940 c0 -15 76 -50 107 -49 24 0 19 5 -32 29 -68 32 -75 34
-75 20z"/>
<path d="M25775 5543 c-22 -3 -44 -9 -50 -15 -14 -15 123 -4 138 11 11 11 -3
12 -88 4z"/>
<path d="M15408 5155 c-4 -16 -9 -39 -12 -50 -4 -11 1 -5 9 14 9 18 14 41 13
50 -2 9 -7 3 -10 -14z"/>
<path d="M15350 5028 c-15 -21 -17 -28 -6 -19 16 13 41 51 33 51 -2 0 -14 -15
-27 -32z"/>
<path d="M15279 4953 c-13 -16 -12 -17 4 -4 16 13 21 21 13 21 -2 0 -10 -8
-17 -17z"/>
<path d="M25860 4951 c24 -13 110 -23 110 -13 0 13 -36 22 -85 22 -27 -1 -35
-3 -25 -9z"/>
<path d="M15230 4925 c-14 -8 -20 -14 -14 -15 5 0 19 7 30 15 24 18 16 19 -16
0z"/>
<path d="M21362 4905 c0 -16 2 -22 5 -12 2 9 2 23 0 30 -3 6 -5 -1 -5 -18z"/>
<path d="M21336 4824 c-19 -46 -65 -100 -121 -143 l-30 -22 33 18 c58 31 151
153 140 184 -2 5 -12 -12 -22 -37z"/>
<path d="M25068 4684 c-27 -8 -48 -19 -48 -24 0 -6 1 -10 3 -10 14 0 114 34
122 41 13 13 -22 10 -77 -7z"/>
<path d="M24960 3780 c-91 -10 507 -16 1500 -16 1060 1 1572 7 1467 18 -83 9
-2889 7 -2967 -2z"/>
<path d="M2188 2253 c106 -2 277 -2 380 0 103 1 16 2 -193 2 -209 0 -293 -1
-187 -2z"/>
<path d="M26168 2253 c6 -2 18 -2 25 0 6 3 1 5 -13 5 -14 0 -19 -2 -12 -5z"/>
<path d="M27478 2253 c67 -2 177 -2 245 0 67 1 12 3 -123 3 -135 0 -190 -2
-122 -3z"/>
</g>
</svg>
