<?xml version="1.0" standalone="no"?>
<!DOCTYPE svg PUBLIC "-//W3C//DTD SVG 20010904//EN"
 "http://www.w3.org/TR/2001/REC-SVG-20010904/DTD/svg10.dtd">
<svg version="1.0" xmlns="http://www.w3.org/2000/svg"
 width="2000.000000pt" height="2000.000000pt" viewBox="0 0 2000.000000 2000.000000"
 preserveAspectRatio="xMidYMid meet">

<g transform="translate(0.000000,2000.000000) scale(0.100000,-0.100000)"
fill="#ff7409" stroke="none">
<path d="M6792 17853 c-23 -42 -42 -80 -42 -84 0 -15 53 -49 77 -49 32 0 92
26 98 42 6 14 -73 168 -85 168 -4 0 -25 -35 -48 -77z"/>
<path d="M6602 16947 l3 -544 29 -41 c43 -62 110 -92 207 -92 104 0 169 32
210 105 33 59 31 16 30 673 l-1 442 -67 0 -68 0 3 -425 c1 -246 -1 -433 -7
-442 -15 -28 -24 238 -19 565 l5 302 -91 0 -91 0 3 -432 c1 -249 -1 -435 -7
-441 -14 -14 -25 381 -17 641 l7 232 -66 0 -65 0 2 -543z"/>
<path d="M9206 17210 c-277 -44 -518 -192 -666 -410 -56 -82 -107 -189 -137
-287 -25 -82 -27 -101 -27 -268 0 -167 2 -186 27 -268 50 -164 134 -305 249
-419 70 -71 203 -164 281 -197 52 -22 52 -23 61 -170 3 -46 8 -86 11 -89 5 -5
636 31 782 45 l61 6 -5 126 -6 127 64 46 c90 64 207 190 267 288 163 265 186
595 62 893 -112 270 -369 486 -665 558 -93 23 -274 32 -359 19z m183 -115 c33
-17 45 -39 28 -53 -28 -22 -113 -52 -148 -52 -58 0 -89 18 -89 51 0 23 8 33
38 48 45 24 131 27 171 6z m-322 -81 c2 -6 -34 -34 -79 -64 -107 -69 -243
-205 -297 -297 -113 -191 -138 -409 -77 -658 13 -55 22 -103 19 -108 -9 -15
-64 46 -95 107 -46 91 -69 195 -69 316 1 165 21 231 121 389 93 148 149 205
257 263 103 56 210 81 220 52z"/>
<path d="M11365 16085 c-14 -13 -25 -31 -25 -39 0 -11 -9 -13 -39 -9 -30 4
-43 1 -59 -15 -85 -85 34 -272 232 -367 103 -49 143 -61 236 -70 246 -24 346
-264 223 -535 -16 -36 -54 -103 -83 -150 -114 -182 -120 -193 -120 -231 0 -21
7 -45 16 -53 30 -30 62 -19 127 43 65 61 110 81 145 62 17 -9 25 -2 63 52 24
34 79 103 123 152 100 114 136 186 136 275 0 47 -6 75 -20 100 -52 91 -61 114
-70 182 -13 91 -46 163 -102 224 -55 59 -92 83 -198 123 -124 48 -154 66 -265
153 -124 98 -183 128 -247 128 -39 0 -54 -5 -73 -25z"/>
<path d="M13554 15900 c-399 -104 -599 -552 -414 -926 190 -382 702 -479 1023
-193 167 148 249 400 203 619 -19 89 -79 216 -134 282 -92 110 -221 192 -352
222 -89 21 -238 19 -326 -4z"/>
<path d="M5274 15758 c-1 -23 3 -28 22 -28 13 0 24 4 24 9 0 5 3 16 6 24 4 10
-3 16 -23 19 -25 3 -28 1 -29 -24z"/>
<path d="M11148 15493 c-33 -8 -18 -28 40 -51 80 -33 102 -37 102 -20 0 19
-38 54 -73 67 -29 11 -40 12 -69 4z"/>
<path d="M11068 15363 c-32 -8 -19 -20 28 -26 31 -3 58 -15 85 -36 25 -21 39
-27 39 -18 0 26 -41 66 -78 77 -39 10 -46 11 -74 3z"/>
<path d="M11048 15305 c-10 -22 -9 -29 9 -47 41 -40 100 2 73 52 -16 30 -67
27 -82 -5z"/>
<path d="M11570 15321 c0 -5 28 -25 63 -44 34 -18 79 -44 100 -56 32 -20 37
-21 37 -6 0 51 -87 115 -157 115 -24 0 -43 -4 -43 -9z"/>
<path d="M11223 15108 c-74 -73 -139 -141 -144 -150 -14 -26 -1 -45 45 -68 61
-29 68 -24 14 10 -27 17 -48 33 -48 36 0 4 63 71 140 149 130 132 150 155 134
155 -3 0 -67 -60 -141 -132z"/>
<path d="M11505 15140 c-4 -6 5 -10 20 -10 34 0 94 -26 122 -52 14 -13 23 -16
23 -9 0 23 -21 51 -50 66 -33 17 -106 20 -115 5z"/>
<path d="M11494 15112 c-36 -24 -11 -85 33 -80 36 4 50 30 35 62 -11 26 -44
35 -68 18z"/>
<path d="M9425 15074 c-198 -13 -370 -26 -383 -29 -35 -8 -49 -48 -28 -80 20
-31 5 -31 455 -1 333 22 345 23 363 45 10 13 18 27 18 33 0 12 -47 58 -57 57
-4 -1 -170 -12 -368 -25z"/>
<path d="M9405 14914 c-192 -13 -356 -26 -363 -29 -7 -2 -17 -16 -24 -29 -9
-20 -8 -30 6 -51 14 -22 23 -25 74 -25 l57 0 64 -105 c46 -75 71 -107 88 -111
32 -9 304 6 324 17 9 4 38 57 64 116 26 59 52 114 58 121 5 6 25 12 43 12 43
0 69 35 55 72 -5 14 -17 28 -26 32 -20 7 8 9 -420 -20z"/>
<path d="M14804 14808 c-1 -23 3 -28 22 -28 13 0 24 4 24 9 0 5 3 16 6 24 4
10 -3 16 -23 19 -25 3 -28 1 -29 -24z"/>
<path d="M11280 14755 c-28 -34 -71 -48 -129 -42 l-56 6 24 -20 c47 -38 159
-13 176 41 9 28 1 35 -15 15z"/>
<path d="M4805 14679 c-10 -30 -82 -107 -118 -125 l-29 -15 53 -32 c30 -18 69
-53 88 -79 l35 -46 26 41 c28 43 66 81 109 110 l23 15 -33 17 c-43 22 -96 72
-115 108 -17 33 -30 35 -39 6z"/>
<path d="M9453 14132 c-309 -31 -564 -60 -568 -63 -3 -4 2 -60 12 -125 23
-153 25 -641 4 -777 -7 -48 -12 -90 -10 -91 2 -2 142 -17 312 -32 197 -18 306
-32 303 -39 -11 -25 -360 -828 -470 -1083 l-123 -284 -81 -33 c-166 -68 -282
-162 -337 -271 -22 -47 -29 -77 -33 -143 -8 -142 32 -260 143 -425 l57 -85
-95 -213 c-171 -385 -258 -601 -364 -913 -36 -104 -127 -361 -203 -570 -212
-584 -272 -783 -315 -1028 -25 -146 -37 -353 -31 -502 9 -189 19 -209 191
-381 228 -229 662 -546 1196 -874 l135 -84 11 -70 c23 -140 149 -579 239 -835
128 -359 350 -889 530 -1258 l79 -163 159 75 c88 41 160 74 162 73 4 -5 146
-303 148 -313 2 -5 6 -17 9 -25 3 -8 14 -64 23 -124 l18 -110 -55 -48 c-71
-64 -165 -126 -264 -176 -157 -78 -295 -118 -615 -177 -236 -43 -393 -83 -495
-126 -216 -90 -396 -269 -506 -503 -37 -80 -90 -243 -88 -275 0 -9 11 24 25
73 50 181 150 358 277 487 175 178 333 244 792 329 477 89 657 159 883 348 28
25 52 41 52 36 0 -5 7 -48 15 -96 9 -48 17 -104 20 -125 12 -99 46 -258 60
-279 15 -24 53 -40 76 -32 7 2 43 94 80 204 37 109 113 334 169 498 l101 299
-22 54 c-25 62 -20 75 46 104 77 35 221 17 262 -33 11 -12 8 -25 -17 -69 -16
-30 -33 -75 -36 -101 l-7 -48 -99 0 c-64 0 -97 -4 -93 -10 3 -6 48 -10 100
-10 l93 0 7 -38 c6 -40 63 -148 72 -139 3 3 -4 18 -14 34 -23 33 -43 87 -43
117 0 20 4 21 122 18 68 -2 129 -5 136 -7 6 -2 12 -15 12 -28 0 -40 29 -112
61 -148 l29 -34 -30 50 c-18 31 -33 72 -37 103 l-6 52 109 0 c60 0 126 -3 147
-6 32 -6 37 -10 37 -33 0 -52 30 -127 66 -167 31 -33 33 -35 15 -7 -38 57 -61
117 -61 161 l0 42 78 0 c42 0 107 -3 143 -6 l66 -7 11 -57 c13 -60 65 -150 92
-158 8 -3 2 9 -13 25 -32 34 -67 119 -67 163 l0 30 79 0 c43 0 99 -3 125 -6
l46 -7 0 -46 c0 -54 36 -135 76 -172 25 -22 24 -20 -5 20 -33 47 -61 126 -61
174 l0 30 253 -8 c138 -5 260 -8 270 -7 14 1 17 -8 17 -47 0 -169 -132 -400
-338 -591 -220 -204 -367 -283 -897 -480 -287 -107 -343 -131 -427 -185 -267
-173 -435 -524 -385 -804 l8 -44 -293 6 c-161 4 -558 9 -883 11 l-590 5 890
-18 c490 -10 892 -16 893 -15 2 1 -1 26 -7 54 -49 229 82 547 304 733 92 78
189 123 550 257 165 62 342 132 392 155 176 83 342 194 472 319 36 33 58 50
49 36 -8 -14 -275 -429 -592 -923 l-578 -897 -37 0 c-20 0 -546 29 -1170 65
-623 36 -1149 65 -1170 65 -34 0 -39 -5 -108 -102 -40 -56 -71 -104 -69 -106
7 -7 2631 -80 2638 -74 3 4 329 531 724 1172 394 641 722 1172 727 1182 16 24
-38 148 -64 148 -16 0 -19 8 -19 50 0 42 -3 50 -19 50 -15 0 -19 10 -23 50 -7
68 -51 137 -112 175 -42 25 -62 31 -125 33 -42 2 -87 -1 -101 -6 -18 -7 -32
-4 -60 12 -50 30 -178 30 -234 0 l-38 -20 -41 20 c-53 26 -139 31 -201 12 -48
-15 -50 -14 -93 10 -52 31 -143 42 -205 25 -39 -10 -48 -9 -92 14 -86 44 -231
29 -297 -31 -15 -14 -22 -12 -63 18 -41 28 -57 33 -121 36 -78 4 -132 -8 -178
-40 -16 -11 -29 -19 -31 -17 -1 2 -25 61 -53 131 -50 126 -51 127 -30 141 20
13 19 18 -91 395 -64 219 -109 388 -105 398 5 13 3 15 -7 9 -10 -6 -12 -4 -7
8 3 9 -9 61 -28 117 -18 55 -32 100 -30 100 2 0 69 -38 149 -85 80 -47 147
-85 150 -85 3 0 28 45 56 99 l51 99 52 -20 c29 -12 58 -28 65 -37 15 -18 16
-115 2 -142 -7 -12 -7 -19 -1 -19 6 0 10 -53 10 -133 0 -126 14 -299 27 -354
7 -28 -2 -49 192 442 210 536 251 641 254 653 3 11 -95 59 -280 137 l-32 14
32 65 c18 36 30 67 27 69 -2 2 -240 163 -529 357 -289 194 -527 355 -529 356
-2 2 69 720 158 1596 89 876 161 1597 161 1602 0 4 9 6 20 3 16 -4 25 3 40 34
32 61 48 137 75 358 28 219 36 267 62 346 15 48 690 1623 718 1674 l13 26 10
-25 c5 -14 58 -142 117 -285 59 -143 114 -275 121 -294 l14 -34 146 151 c167
174 274 264 359 302 57 26 201 71 273 85 17 4 32 8 32 10 0 2 -59 135 -131
297 -72 161 -176 394 -231 518 -55 124 -109 242 -121 263 -43 77 -188 186
-432 324 -127 71 -240 135 -252 141 -20 11 -25 8 -56 -40 -77 -121 -196 -189
-338 -196 -139 -7 -241 32 -336 130 -112 115 -149 317 -84 463 l19 42 -52 11
c-28 6 -170 14 -316 17 -146 3 -283 8 -305 10 -22 2 -293 -22 -602 -53z m-425
-2996 c72 -69 269 -313 260 -322 -4 -4 -478 115 -494 124 -10 5 -2 35 30 117
78 197 72 188 97 174 12 -6 60 -48 107 -93z m212 -2731 c-10 -148 -24 -367
-30 -485 -6 -118 -15 -219 -20 -223 -16 -17 -53 175 -57 303 -5 123 -4 129 51
380 65 293 67 302 71 298 2 -2 -5 -124 -15 -273z m2162 -2810 c18 -41 -3 -75
-46 -75 -36 0 -56 20 -56 54 0 47 82 64 102 21z m-516 -1600 c21 -33 11 -73
-22 -85 -47 -18 -92 26 -75 73 17 44 72 50 97 12z m813 -35 l44 -20 -39 -34
c-45 -38 -89 -113 -99 -168 l-7 -38 -67 0 -66 0 -1 63 c0 44 -7 75 -23 105
-12 23 -19 47 -15 53 3 6 30 22 58 35 65 31 152 32 215 4z m262 -22 c19 -6 44
-18 56 -26 l22 -14 -30 -25 c-36 -30 -73 -93 -90 -152 l-13 -43 -44 6 c-25 3
-89 6 -143 6 -113 0 -112 -1 -82 85 17 53 104 150 126 142 27 -9 70 -97 77
-160 l7 -62 2 51 c1 55 -22 136 -45 155 -8 6 -14 16 -14 21 0 26 112 37 171
16z m319 -34 c22 -9 40 -18 40 -20 0 -2 -15 -24 -34 -48 -32 -43 -46 -74 -60
-138 -6 -25 -11 -28 -45 -28 l-38 0 -6 61 c-3 37 -16 81 -31 112 -15 27 -25
51 -24 52 2 1 17 7 33 13 45 16 120 14 165 -4z m325 -3 l30 -12 -43 -36 c-46
-38 -68 -72 -93 -143 -23 -66 -45 -64 -53 4 -5 35 -19 74 -42 112 -19 31 -33
59 -31 60 2 2 21 11 43 19 44 17 143 15 189 -4z m265 -28 c19 -8 48 -26 63
-41 38 -35 77 -113 77 -152 l0 -30 -125 0 -125 0 0 33 c0 50 -25 123 -54 162
l-27 34 23 5 c13 3 32 7 43 9 28 6 83 -3 125 -20z m-1439 -25 c13 -25 22 -63
23 -93 l1 -50 -62 -3 -63 -3 0 29 c0 52 48 162 71 162 5 0 18 -19 30 -42z
m670 -31 c11 -21 23 -61 26 -88 l6 -49 -102 0 c-74 0 -101 3 -101 13 0 28 60
135 90 160 38 32 49 27 81 -36z m620 -29 c11 -21 22 -58 26 -83 l6 -45 -123 0
-122 0 6 32 c10 50 54 116 98 149 l41 29 25 -22 c13 -13 33 -40 43 -60z m-337
39 c27 -35 56 -107 56 -138 0 -17 -9 -19 -101 -19 l-101 0 7 33 c14 62 74 157
100 157 8 0 25 -15 39 -33z"/>
<path d="M15057 13238 c-25 -42 -72 -90 -111 -113 -15 -9 -10 -15 36 -45 29
-19 67 -56 84 -82 l31 -46 12 25 c20 44 62 92 106 121 l43 28 -44 24 c-43 22
-82 60 -115 109 l-15 24 -27 -45z"/>
<path d="M3678 12593 c6 -2 18 -2 25 0 6 3 1 5 -13 5 -14 0 -19 -2 -12 -5z"/>
<path d="M3738 12583 c6 -2 18 -2 25 0 6 3 1 5 -13 5 -14 0 -19 -2 -12 -5z"/>
<path d="M3788 12573 c6 -2 18 -2 25 0 6 3 1 5 -13 5 -14 0 -19 -2 -12 -5z"/>
<path d="M3925 12536 c295 -99 567 -277 835 -546 l145 -145 460 -804 c253
-443 475 -831 494 -864 33 -58 29 -64 -14 -26 -11 10 -58 41 -104 68 -220 133
-549 214 -931 230 l-154 6 -457 873 c-251 480 -460 876 -464 880 -4 4 30 -67
76 -158 46 -91 85 -168 87 -172 2 -3 -30 -11 -70 -18 -105 -17 -231 -47 -323
-76 -110 -36 -265 -104 -265 -116 0 -13 1018 -1938 1034 -1955 9 -10 28 1 85
47 40 33 77 60 81 60 5 0 42 -53 82 -119 l74 -118 84 66 c244 191 532 333 790
388 117 25 363 24 433 -1 52 -18 77 -16 77 8 0 36 213 192 370 271 268 135
551 175 870 125 69 -11 131 -20 138 -20 8 0 4 15 -14 45 -14 25 -25 48 -23 50
2 2 28 -1 58 -7 29 -5 55 -7 58 -4 5 5 -872 1584 -890 1601 -13 13 9 -27 374
-690 475 -865 488 -889 486 -891 -1 -1 -51 7 -112 18 -156 29 -519 31 -650 5
-298 -61 -526 -208 -649 -421 -27 -46 -42 -63 -47 -54 -5 7 -238 409 -518 893
l-510 880 113 110 c132 129 235 206 378 280 191 100 349 139 563 139 124 0
126 0 55 8 -46 5 -119 5 -187 -2 -299 -28 -567 -163 -840 -423 l-92 -89 -108
110 c-263 266 -560 461 -844 556 -59 20 -113 36 -120 36 -8 -1 31 -16 86 -34z
m351 -1390 l368 -713 175 -6 c446 -16 809 -126 1038 -316 23 -19 41 -36 39
-38 -1 -2 -38 13 -81 33 -43 20 -121 47 -174 61 -83 22 -118 26 -256 27 -176
1 -259 -12 -420 -65 -189 -63 -432 -199 -610 -342 -46 -37 -72 -52 -76 -44 -4
7 -235 441 -514 965 -278 525 -505 955 -503 957 12 10 98 48 178 78 122 45
332 98 462 116 3 1 172 -320 374 -713z"/>
<path d="M3670 12320 c22 -44 42 -80 45 -80 3 0 -13 36 -35 80 -22 44 -42 80
-45 80 -3 0 13 -36 35 -80z"/>
<path d="M6123 12363 c9 -2 23 -2 30 0 6 3 -1 5 -18 5 -16 0 -22 -2 -12 -5z"/>
<path d="M6240 12336 c41 -12 85 -26 98 -30 12 -4 22 -5 22 -2 0 7 -157 56
-178 55 -9 0 17 -10 58 -23z"/>
<path d="M6391 12286 c2 -2 15 -9 29 -15 24 -11 24 -11 6 3 -16 13 -49 24 -35
12z"/>
<path d="M6510 12160 c6 -11 13 -20 16 -20 2 0 0 9 -6 20 -6 11 -13 20 -16 20
-2 0 0 -9 6 -20z"/>
<path d="M13805 11785 c-185 -30 -359 -92 -508 -182 -104 -63 -249 -183 -314
-261 l-52 -63 24 -67 c13 -37 53 -150 88 -252 35 -102 133 -382 217 -623 l153
-438 156 -112 c161 -117 326 -266 319 -289 -3 -7 -16 -14 -30 -16 -24 -3 -33
3 -189 122 -22 16 -42 27 -45 24 -12 -13 22 -56 126 -163 111 -115 135 -147
126 -171 -17 -43 -100 10 -233 150 -92 96 -123 117 -123 84 0 -5 40 -53 90
-105 92 -98 166 -198 176 -240 8 -29 -15 -57 -38 -48 -9 4 -65 61 -124 127
-121 136 -207 210 -212 185 -6 -29 55 -124 147 -231 58 -67 68 -126 22 -126
-27 0 -134 94 -250 219 -95 103 -152 148 -171 136 -5 -3 -10 -28 -10 -54 0
-142 -60 -276 -115 -255 -30 12 -36 40 -20 100 20 79 19 156 -5 234 -11 35
-97 239 -192 453 -161 361 -173 385 -176 345 -8 -106 31 -323 121 -670 121
-467 193 -966 185 -1280 -1 -75 -1 -135 1 -133 4 5 121 -58 226 -120 39 -23
148 -81 243 -130 166 -85 172 -89 159 -109 -100 -154 -391 -655 -384 -662 8
-8 286 455 396 661 24 44 57 98 74 120 139 179 326 375 437 458 35 27 209 134
385 239 638 380 983 631 1221 889 37 41 71 73 76 71 4 -1 8 5 8 14 0 8 11 30
25 48 40 53 103 197 127 292 19 75 23 116 22 259 0 151 -3 182 -27 278 -135
540 -601 1008 -1210 1216 -199 68 -295 83 -582 87 -186 2 -273 0 -340 -11z"/>
<path d="M6020 8831 c-144 -39 -401 -157 -615 -281 -84 -48 -92 -51 -120 -40
-169 68 -259 86 -403 77 -353 -20 -652 -280 -727 -632 -17 -83 -19 -218 -4
-300 l11 -58 -60 -61 c-196 -202 -367 -419 -431 -547 -35 -70 -41 -91 -39
-133 2 -40 8 -53 31 -70 42 -31 181 -28 299 8 122 36 317 122 481 212 l139 76
46 -20 c139 -59 311 -76 465 -44 338 71 585 340 629 687 9 68 9 115 1 174
l-11 81 94 95 c407 414 568 698 441 775 -41 25 -136 25 -227 1z m-3 -192 c12
-4 30 -20 39 -34 33 -51 -2 -151 -101 -280 -60 -79 -242 -275 -255 -275 -5 0
-27 37 -48 83 -47 98 -113 189 -189 256 l-56 50 34 21 c71 43 247 129 318 154
118 42 192 49 258 25z m-1517 -283 c0 -2 -20 -28 -45 -57 -80 -93 -148 -224
-176 -339 -23 -91 -18 -271 10 -360 29 -95 76 -188 135 -268 26 -35 46 -68 44
-73 -5 -16 -69 37 -120 98 -128 154 -183 375 -144 573 11 53 34 121 63 180 37
77 60 109 123 173 43 42 85 77 94 77 9 0 16 -2 16 -4z m125 -381 c14 -13 25
-36 25 -50 0 -30 -49 -85 -75 -85 -21 0 -57 19 -72 39 -35 45 7 121 67 121 19
0 40 -9 55 -25z m146 -318 c41 -28 59 -60 59 -110 0 -57 -25 -96 -76 -118 -78
-35 -160 3 -182 84 -32 117 99 212 199 144z m-557 -199 c11 -46 108 -178 178
-243 58 -53 69 -68 57 -76 -35 -25 -320 -159 -379 -179 -36 -12 -90 -24 -122
-27 -51 -5 -59 -3 -83 21 -23 23 -26 32 -20 64 9 49 44 115 99 189 68 90 236
273 251 273 7 0 15 -10 19 -22z"/>
<path d="M12905 8098 c-73 -193 -156 -425 -194 -540 -31 -93 -46 -125 -56
-122 -10 4 -20 -15 -35 -68 -12 -40 -53 -178 -92 -306 -38 -129 -68 -236 -66
-238 3 -2 89 -42 193 -89 152 -69 191 -83 200 -73 6 7 70 87 141 178 71 91
151 192 177 225 43 54 45 61 30 73 -9 7 -131 73 -270 148 -139 75 -253 140
-253 145 0 5 18 53 39 106 38 97 172 468 206 571 26 80 11 73 -20 -10z"/>
<path d="M6448 7631 c-3 -22 0 -26 23 -27 22 -1 28 4 31 25 3 22 0 26 -23 27
-22 1 -28 -4 -31 -25z"/>
<path d="M7022 6426 c-16 -36 -81 -105 -114 -122 l-29 -15 58 -39 c32 -21 69
-57 83 -79 23 -38 40 -52 40 -33 0 23 66 104 106 131 l46 30 -39 20 c-39 20
-123 102 -123 121 0 19 -17 10 -28 -14z"/>
<path d="M13851 5902 c-23 -46 -72 -95 -115 -119 l-30 -16 40 -19 c47 -24 88
-62 116 -106 l20 -33 27 43 c27 42 94 109 122 122 9 4 10 8 3 11 -53 26 -109
73 -133 111 l-30 46 -20 -40z"/>
<path d="M7656 4606 c-5 -27 -13 -36 -48 -50 l-42 -16 37 -25 c32 -23 37 -31
37 -66 l0 -40 35 26 c24 19 41 25 57 20 64 -18 60 -21 42 24 -15 39 -15 42 5
70 12 16 21 32 21 35 0 3 -18 6 -41 6 -32 0 -46 6 -61 25 -26 33 -35 32 -42
-9z"/>
<path d="M5309 4540 c-7 -23 -18 -44 -23 -46 -6 -2 -24 -8 -41 -15 l-30 -11
37 -21 c34 -20 38 -26 38 -65 0 -39 2 -42 19 -32 11 5 26 17 35 25 13 13 23
14 53 6 20 -6 38 -9 40 -7 2 1 -3 19 -11 38 -14 33 -14 37 11 73 l26 38 -44
-5 c-41 -5 -46 -2 -71 29 l-27 35 -12 -42z"/>
<path d="M14110 4381 c0 -5 -3 -16 -6 -25 -5 -12 0 -16 20 -16 14 0 26 4 26 9
0 5 3 16 6 25 5 12 0 16 -20 16 -14 0 -26 -4 -26 -9z"/>
<path d="M7519 4333 l-24 -28 28 24 c25 23 32 31 24 31 -2 0 -14 -12 -28 -27z"/>
<path d="M7299 4125 c-53 -52 -93 -95 -90 -95 4 0 49 43 101 95 52 52 92 95
90 95 -3 0 -48 -43 -101 -95z"/>
<path d="M7128 3963 c-36 -36 -38 -36 -57 -19 -19 18 -20 18 -26 -7 -4 -16
-16 -28 -32 -32 l-26 -6 22 -15 c14 -10 21 -26 21 -46 0 -25 2 -28 14 -19 11
10 15 8 19 -6 3 -12 5 -8 6 10 1 31 1 30 35 17 24 -9 25 -8 15 17 -7 19 -6 32
6 49 14 22 14 24 -2 24 -13 0 -9 8 17 35 19 19 32 35 29 35 -2 0 -21 -17 -41
-37z"/>
<path d="M7074 3660 c0 -52 1 -74 3 -47 2 26 2 68 0 95 -2 26 -3 4 -3 -48z"/>
<path d="M5592 3640 c3 -8 17 -52 33 -98 15 -46 29 -82 31 -79 5 5 -53 178
-62 186 -4 3 -5 -1 -2 -9z"/>
<path d="M7084 3435 c0 -55 1 -76 3 -47 2 29 2 74 0 100 -2 26 -3 2 -3 -53z"/>
<path d="M7094 3205 c0 -60 1 -84 3 -52 2 32 2 81 0 110 -2 29 -3 3 -3 -58z"/>
<path d="M5750 3177 c0 -2 20 -62 44 -134 24 -72 42 -134 39 -137 -3 -2 -16 0
-30 5 -33 12 -36 8 -23 -26 8 -22 7 -33 -5 -51 -21 -32 -19 -34 15 -34 21 0
39 -9 55 -27 24 -27 24 -27 25 -5 0 12 4 22 9 22 8 0 1120 -739 1144 -760 4
-4 -2 -18 -13 -32 -11 -15 -20 -29 -20 -32 0 -3 22 -6 50 -6 47 0 50 -2 81
-47 l33 -47 15 45 c22 62 25 65 76 78 25 6 45 13 45 15 0 2 -18 16 -40 31 -39
27 -40 29 -40 87 l0 59 -27 -20 c-14 -12 -28 -19 -31 -17 -2 3 -14 218 -27
478 -12 260 -23 437 -23 393 -1 -44 7 -260 17 -480 11 -235 14 -405 9 -411 -6
-9 -22 -7 -58 7 -28 10 -50 15 -50 10 0 -5 7 -28 15 -51 26 -74 93 -113 -645
380 -508 339 -515 344 -482 353 39 12 40 19 7 37 -20 11 -25 21 -25 53 0 40 0
40 -20 22 -11 -10 -22 -16 -24 -14 -2 2 -22 61 -45 132 -35 105 -51 144 -51
124z"/>
<path d="M8522 2010 c0 -19 2 -27 5 -17 2 9 2 25 0 35 -3 9 -5 1 -5 -18z"/>
<path d="M8514 1850 c0 -69 1 -97 3 -62 2 34 2 90 0 125 -2 34 -3 6 -3 -63z"/>
<path d="M8521 1684 c0 -11 3 -14 6 -6 3 7 2 16 -1 19 -3 4 -6 -2 -5 -13z"/>
<path d="M8531 1634 c0 -11 3 -14 6 -6 3 7 2 16 -1 19 -3 4 -6 -2 -5 -13z"/>
<path d="M8863 1503 c65 -2 168 -2 230 0 62 1 9 3 -118 3 -126 0 -177 -2 -112
-3z"/>
</g>
</svg>
