<?xml version="1.0" standalone="no"?>
<!DOCTYPE svg PUBLIC "-//W3C//DTD SVG 20010904//EN"
 "http://www.w3.org/TR/2001/REC-SVG-20010904/DTD/svg10.dtd">
<svg version="1.0" xmlns="http://www.w3.org/2000/svg"
 width="3000.000000pt" height="2000.000000pt" viewBox="0 0 3000.000000 2000.000000"
 preserveAspectRatio="xMidYMid meet">

<g transform="translate(0.000000,2000.000000) scale(0.100000,-0.100000)"
fill="#ff7409" stroke="none">
<path d="M13160 16815 l0 -1215 1868 2 1867 3 -1860 5 -1860 5 -3 1203 -2
1202 2970 0 2970 0 3 -222 2 -223 3 228 2 227 -2980 0 -2980 0 0 -1215z"/>
<path d="M14842 17693 c714 -2 1882 -2 2595 0 714 1 130 2 -1297 2 -1427 0
-2011 -1 -1298 -2z"/>
<path d="M11386 17175 l-48 -75 -88 0 c-49 0 -95 -3 -103 -6 -10 -3 -32 19
-67 68 -29 40 -54 74 -55 76 -1 1 -65 -25 -142 -59 l-140 -61 18 -88 18 -88
-74 -76 -73 -77 -64 11 c-119 19 -108 27 -163 -117 -26 -71 -50 -133 -52 -140
-3 -6 30 -34 71 -62 l76 -52 0 -103 0 -104 -70 -52 c-38 -29 -70 -54 -70 -56
0 -7 113 -259 119 -267 4 -4 47 0 95 9 l89 17 41 -44 c22 -24 55 -56 73 -70
l32 -27 -14 -88 c-7 -49 -12 -90 -10 -92 1 -2 65 -27 141 -56 l138 -53 52 73
51 74 104 3 104 3 53 -72 52 -73 113 51 c61 27 124 55 140 60 15 5 27 13 27
16 -1 4 -9 45 -18 90 l-17 84 73 75 73 75 85 -12 c47 -7 87 -10 90 -7 7 7 104
260 104 272 -1 5 -33 32 -73 59 l-72 49 -1 103 -2 104 69 51 c38 29 69 55 69
60 0 8 -109 260 -116 268 -2 2 -42 -3 -90 -12 l-87 -16 -77 71 -77 71 14 85
c7 47 10 89 6 93 -6 6 -269 109 -276 109 -1 0 -24 -34 -51 -75z m-1 -537 c61
-32 129 -103 158 -166 17 -36 22 -66 22 -132 0 -66 -5 -96 -22 -132 -74 -160
-263 -239 -421 -175 -80 32 -132 77 -173 152 -32 56 -34 66 -34 155 0 80 4
103 24 142 40 82 119 149 211 179 14 5 61 7 105 5 62 -2 91 -8 130 -28z"/>
<path d="M16055 16920 c-33 -4 415 -7 995 -7 580 0 1026 3 990 7 -81 9 -1903
9 -1985 0z"/>
<path d="M16333 16623 c394 -2 1040 -2 1435 0 394 1 71 2 -718 2 -789 0 -1112
-1 -717 -2z"/>
<path d="M15963 16333 c280 -2 734 -2 1010 0 276 1 48 2 -508 2 -555 0 -781
-1 -502 -2z"/>
<path d="M9785 15839 l-40 -59 -72 0 -72 0 -42 55 c-23 31 -47 54 -53 52 -96
-39 -226 -102 -226 -111 1 -6 7 -37 14 -69 l14 -57 -51 -54 -52 -54 -50 9
c-91 15 -92 14 -111 -43 -9 -29 -30 -83 -45 -120 l-27 -67 59 -38 59 -38 0
-57 c0 -31 3 -63 6 -71 5 -13 -29 -43 -113 -102 -3 -2 96 -227 102 -234 2 -1
36 3 75 10 l71 12 50 -49 c54 -53 55 -56 33 -165 -5 -25 0 -27 108 -67 62 -23
118 -42 124 -42 6 0 27 25 45 55 32 53 35 55 79 56 42 0 131 14 120 19 -3 1
-43 2 -89 3 l-84 2 -38 -57 -39 -57 -92 36 c-51 20 -97 39 -101 43 -5 4 -3 35
3 69 l11 62 -63 61 -63 61 -63 -12 c-36 -7 -67 -10 -70 -7 -8 8 -82 177 -82
187 0 4 25 25 55 46 43 30 54 42 50 58 -2 11 -5 50 -5 87 l0 67 -56 36 c-31
20 -54 41 -51 48 2 7 19 52 38 100 l33 89 41 -7 c103 -15 96 -18 157 49 l57
61 -14 65 c-7 36 -12 67 -9 69 8 9 177 81 188 81 6 0 26 -23 45 -50 l33 -50
89 0 89 0 36 55 c20 30 41 55 46 55 4 0 50 -16 101 -36 l93 -35 -9 -68 -9 -67
58 -57 c64 -63 53 -60 165 -41 l36 6 43 -98 43 -98 -34 -26 c-77 -59 -77 -57
-72 -147 l5 -82 54 -35 c30 -20 54 -38 54 -41 0 -4 -71 -198 -74 -202 -1 -1
-32 2 -69 7 l-68 10 -55 -57 c-59 -63 -57 -54 -38 -163 6 -35 5 -36 -45 -60
-66 -30 -60 -37 7 -8 57 25 60 35 41 117 l-10 44 53 55 53 54 58 -7 c32 -3 64
-8 70 -11 8 -3 29 40 58 113 l46 118 -58 40 -58 40 -1 76 0 76 47 34 c26 19
51 37 55 40 8 5 -74 211 -92 232 -3 4 -36 1 -71 -6 l-65 -14 -55 51 c-54 51
-54 51 -47 96 3 25 7 57 7 71 1 28 7 25 -174 94 l-60 23 -40 -59z"/>
<path d="M9594 15432 c-93 -32 -154 -101 -174 -197 -13 -63 -6 -113 25 -175
40 -80 118 -129 214 -136 l56 -4 -63 14 c-137 32 -212 119 -212 245 1 203 237
314 390 184 60 -52 84 -104 84 -183 0 -47 -6 -76 -21 -106 -21 -40 -87 -107
-114 -116 -8 -3 -11 -8 -7 -12 11 -12 86 32 112 67 40 52 56 101 56 169 0 118
-75 221 -184 253 -64 19 -99 18 -162 -3z"/>
<path d="M16480 15434 c-178 -26 -309 -67 -421 -134 -264 -157 -437 -403 -494
-703 -13 -69 -15 -349 -15 -2213 l0 -2134 -1063 -1 c-584 -1 -1087 -4 -1117
-9 -30 -4 448 -8 1063 -9 l1117 -1 0 -115 0 -115 -1172 -2 c-684 -1 -1077 -5
-943 -9 127 -3 654 -7 1173 -8 l942 -1 -2 -717 -3 -718 -1185 -5 -1185 -5
1185 -5 1185 -5 3 -112 3 -113 -779 0 c-428 0 -963 -3 -1188 -7 -349 -7 -234
-9 776 -13 l1185 -5 0 -765 0 -765 -1200 -5 -1200 -5 1200 -5 1200 -5 3 -112
3 -113 -918 -1 c-505 -1 -1046 -5 -1203 -8 -176 -5 173 -8 918 -9 l1202 -2 -2
-850 -3 -851 -700 1 c-385 0 -920 -3 -1190 -7 -453 -7 -400 -8 700 -13 l1190
-5 3 -113 3 -112 -1068 -1 c-587 0 -1090 -4 -1118 -9 -27 -4 453 -8 1068 -9
l1117 -1 0 -805 0 -805 -987 -1 c-544 -1 -1076 -5 -1183 -9 -107 -3 337 -7
988 -8 l1182 -2 0 -115 0 -115 -1152 -2 c-634 0 -1112 -4 -1063 -9 50 -4 567
-7 1151 -8 l1061 -1 6 -92 c10 -164 70 -335 167 -479 90 -134 252 -275 399
-349 24 -12 89 -37 145 -56 l101 -34 -2480 3 -2480 4 -77 21 c-261 71 -455
262 -535 527 -17 57 -18 237 -20 4141 l-3 4081 42 13 c80 23 69 16 836 523
342 227 372 249 360 265 -7 10 -60 62 -118 116 -58 54 -118 110 -133 125 l-28
27 36 -4 c27 -3 54 5 113 34 76 39 78 39 198 40 66 0 127 4 135 9 8 4 2 -5
-12 -21 -34 -38 -40 -58 -25 -79 9 -12 22 -16 43 -13 29 4 29 3 19 -24 -24
-65 59 -59 131 10 22 20 30 30 19 21 -44 -35 -92 -59 -118 -59 -16 0 -28 3
-28 8 0 4 37 42 82 85 71 67 76 73 33 44 -71 -49 -110 -67 -145 -67 -57 0 -40
28 74 128 48 41 53 52 15 32 -12 -7 -19 -7 -19 -1 0 20 -32 41 -63 41 l-32 1
25 22 c14 12 41 35 60 51 44 36 22 24 -52 -26 l-56 -40 -106 17 c-170 27 -156
12 19 -19 177 -32 187 -34 179 -47 -15 -24 -73 -40 -181 -49 -109 -8 -124 -12
-196 -50 -116 -60 -132 -56 -261 59 -45 40 -75 60 -85 56 -15 -6 -407 -221
-639 -351 -63 -35 -116 -64 -118 -64 -2 0 -4 245 -4 545 l0 545 208 3 207 2
-208 3 -208 2 4 1028 c3 1141 -2 1060 71 1217 89 191 277 346 486 401 57 15
144 18 710 24 l645 6 -645 -1 c-631 -1 -647 -1 -723 -23 -132 -37 -230 -94
-333 -197 -78 -77 -98 -104 -138 -185 -87 -178 -80 -85 -84 -1242 l-3 -1028
-422 0 c-388 0 -425 -2 -462 -19 -50 -22 -91 -69 -105 -119 -5 -21 -10 -142
-10 -274 0 -131 -2 -238 -4 -238 -2 0 -89 50 -193 111 -419 247 -456 260 -874
303 l-47 5 -4 -77 c-8 -142 -88 -262 -217 -325 -62 -30 -73 -32 -171 -32 -98
0 -110 3 -171 32 -119 58 -205 178 -215 300 -3 32 -7 72 -10 89 l-4 31 -84
-13 c-238 -35 -459 -139 -600 -281 -134 -134 -237 -337 -301 -593 -14 -58 -57
-220 -95 -360 -39 -140 -92 -343 -118 -450 l-49 -195 -1186 -3 -1187 -2 0
-1215 0 -1215 1380 0 c759 0 1380 -3 1380 -6 0 -4 -86 -570 -191 -1258 -104
-688 -210 -1381 -234 -1541 -24 -159 -94 -614 -154 -1010 -154 -1011 -261
-1717 -264 -1740 -2 -16 6 -21 46 -27 27 -3 51 -9 54 -12 6 -5 -35 -183 -46
-201 -3 -5 -6 -14 -7 -20 -1 -5 -44 -82 -96 -170 l-94 -160 -1009 -3 c-556 -1
-1020 0 -1032 3 -21 5 -20 8 21 48 85 85 130 221 130 387 -1 85 -5 119 -25
177 l-25 71 127 509 c70 279 137 569 149 643 34 220 48 269 106 388 58 120 74
172 147 472 24 102 65 238 91 303 25 65 46 124 46 130 -1 7 -26 -50 -56 -127
-39 -96 -75 -216 -119 -390 -51 -206 -71 -268 -109 -344 -71 -142 -85 -184
-107 -324 -10 -70 -26 -161 -34 -201 -27 -132 -249 -1027 -254 -1027 -4 1 -23
37 -43 80 -32 70 -36 83 -26 112 5 18 13 123 17 233 8 230 11 241 118 401 128
190 140 241 103 433 -21 113 -22 120 -6 174 10 36 47 102 100 181 106 158 135
232 185 483 54 268 92 373 175 476 43 54 108 101 117 85 4 -7 14 -76 24 -152
24 -196 17 -268 -44 -421 -62 -156 -65 -170 -95 -435 -14 -124 -33 -252 -41
-285 -8 -33 -42 -114 -75 -180 -67 -133 -80 -194 -80 -385 0 -119 -8 -146 -83
-299 -57 -116 -61 -130 -65 -207 -3 -50 3 -136 13 -211 23 -165 14 -211 -57
-320 -62 -96 -78 -140 -77 -212 l2 -56 7 70 c7 75 20 105 82 197 71 103 80
167 52 355 -26 172 -19 218 60 380 76 158 86 202 86 362 0 145 13 199 83 332
66 126 78 179 112 474 28 241 32 258 99 427 l46 116 0 129 c0 108 -24 348 -36
362 -8 9 -112 -71 -142 -108 -44 -55 -96 -155 -121 -231 -11 -36 -39 -154 -61
-264 -50 -243 -80 -324 -171 -455 -127 -184 -139 -233 -99 -425 31 -145 20
-184 -103 -375 -117 -182 -120 -193 -123 -394 -2 -177 -10 -257 -24 -257 -10
0 -63 126 -80 190 -25 94 -29 157 -18 326 18 258 5 306 -140 547 -129 215
-142 279 -91 473 55 214 44 285 -72 466 -133 207 -168 313 -219 664 -51 357
-105 501 -240 636 -43 43 -82 78 -88 78 -14 0 -63 -264 -72 -387 -11 -147 1
-228 54 -375 58 -162 72 -246 86 -498 20 -374 32 -442 115 -620 29 -63 58
-133 64 -155 6 -23 11 -135 11 -257 0 -249 3 -262 101 -483 l54 -120 0 -115
c0 -112 -20 -244 -35 -235 -4 3 -18 26 -30 52 -20 41 -24 71 -30 203 -10 215
-22 239 -156 330 -97 66 -117 94 -143 192 -69 260 -165 455 -301 608 l-39 45
-1 -70 c0 -181 49 -364 154 -573 35 -70 67 -136 70 -147 15 -52 13 -110 -5
-234 -29 -197 -21 -229 102 -403 87 -122 115 -191 103 -255 -3 -21 -26 -88
-50 -150 -57 -146 -59 -200 -9 -299 73 -148 188 -252 323 -295 56 -18 100 -22
267 -26 110 -3 220 -4 244 -4 24 0 40 -3 36 -7 -3 -4 -451 -9 -993 -12 -778
-4 -558 -6 1036 -8 1129 -1 2022 -6 2022 -11 0 -4 -9 -20 -20 -34 -11 -14 -20
-28 -20 -31 0 -2 -25 -47 -55 -99 -30 -51 -55 -105 -55 -119 0 -32 32 -73 51
-65 8 3 198 120 423 259 l408 253 52 161 c29 88 55 165 59 170 4 7 30 7 77 1
39 -5 73 -7 76 -5 2 3 69 326 149 719 212 1036 466 2286 539 2644 273 1345
390 1914 393 1912 2 -2 70 -1115 153 -2473 82 -1358 154 -2538 160 -2623 5
-85 10 -169 10 -188 0 -33 0 -33 46 -33 l46 0 -7 -158 -7 -158 483 -12 c266
-7 554 -15 639 -18 l155 -6 -24 20 c-55 44 -324 166 -505 228 -73 25 -106 51
-106 81 0 36 14 42 105 45 l90 3 -62 2740 c-34 1507 -62 2791 -62 2853 l-1
112 -2470 0 -2470 0 0 1199 0 1200 43 6 c23 3 553 4 1177 3 l1135 -3 -3 -25
c-2 -14 -15 -83 -30 -155 l-27 -130 -1030 -5 -1030 -5 1028 -3 c814 -1 1027
-5 1027 -14 0 -7 -7 -58 -15 -113 -27 -185 -16 -272 48 -385 56 -99 193 -227
302 -282 186 -95 461 -135 839 -125 215 6 340 20 524 58 l104 22 -7 31 c-3 17
-26 132 -50 256 -24 124 -48 237 -54 252 -16 43 -51 58 -187 79 -71 10 -172
28 -224 40 -113 24 -481 117 -487 122 -2 2 1 16 6 31 l10 26 708 3 708 2 -707
3 c-390 1 -708 5 -708 10 0 4 18 75 38 157 l38 150 1382 3 1381 2 4 -52 3 -53
2 58 2 57 -500 0 -500 0 0 330 c0 182 1 330 3 330 1 0 263 -104 582 -230 381
-151 607 -236 660 -246 78 -16 245 -15 303 2 l22 6 0 -4063 c0 -3520 2 -4073
15 -4134 8 -40 37 -115 66 -175 44 -88 65 -117 133 -185 87 -85 157 -132 258
-172 35 -13 72 -28 83 -33 12 -5 -971 -9 -2344 -9 -1300 -1 -2362 -3 -2359 -6
2 -3 2852 -6 6332 -9 l6328 -3 10 29 c6 15 19 33 30 39 12 6 217 16 521 24
276 8 559 16 630 19 l127 5 0 -55 0 -54 808 2 c588 2 710 4 447 8 -319 4 -355
6 -315 18 187 55 318 130 452 260 42 41 89 92 104 114 19 27 30 35 35 26 3 -7
21 -92 39 -188 18 -96 34 -176 35 -177 0 -1 143 15 316 37 173 22 317 40 322
40 13 0 8 28 -42 212 -28 100 -48 184 -45 187 2 2 29 8 60 12 31 4 58 10 61
13 3 3 -71 513 -166 1132 -94 620 -169 1129 -166 1132 4 4 344 -66 408 -84 14
-4 30 21 82 132 36 76 67 139 69 141 2 2 43 8 92 14 49 6 125 19 168 30 l79
20 111 -110 111 -111 215 136 c118 75 216 137 218 139 2 2 -20 68 -48 148
l-52 145 66 86 c37 48 80 112 97 142 l31 54 157 0 158 0 53 238 c29 130 54
245 54 254 1 13 -35 35 -132 81 -73 35 -135 67 -138 70 -3 3 -10 43 -15 89 -5
46 -19 121 -30 168 l-20 84 110 111 110 110 -130 205 c-72 113 -134 211 -138
218 -5 10 -40 1 -146 -38 -77 -27 -144 -50 -150 -50 -6 0 -43 25 -81 55 -38
31 -99 74 -136 96 l-68 40 0 157 0 157 -243 54 c-133 29 -247 56 -253 58 -6 2
-41 -61 -79 -140 l-68 -144 -79 -6 c-43 -4 -119 -16 -169 -28 l-91 -21 -112
110 -111 110 -68 -44 c-46 -30 -69 -40 -72 -32 -3 7 -4 521 -3 1141 l3 1128
95 2 c80 2 105 7 157 31 34 15 72 39 84 52 12 13 27 24 32 24 24 0 80 103 96
178 21 100 8 208 -39 317 -12 28 -35 100 -51 160 -69 256 -187 623 -268 837
l-10 26 -108 -33 c-124 -39 -104 -47 -182 75 -47 73 -178 306 -217 384 -26 54
-110 137 -177 175 -103 59 -298 111 -414 111 l-44 0 35 43 c36 45 86 141 86
167 0 8 -11 -10 -23 -40 -30 -71 -35 -80 -77 -126 l-35 -39 -160 3 c-208 5
-757 -23 -862 -43 -45 -9 -101 -22 -124 -30 -35 -13 -188 -15 -1003 -17 l-961
-3 939 -5 c922 -5 938 -5 900 -23 -141 -68 -266 -198 -394 -415 -51 -86 -131
-214 -176 -284 l-83 -128 -322 0 c-277 0 -323 2 -333 15 -10 13 -47 -8 -253
-142 -134 -87 -243 -164 -243 -171 0 -11 19 -59 107 -269 3 -7 -9 -13 -34 -16
l-38 -4 41 -1 42 -2 42 -97 c23 -54 44 -103 47 -110 4 -9 -23 -13 -104 -16
l-108 -3 111 -2 111 -2 57 -127 c68 -152 126 -236 213 -307 236 -196 514 -194
712 4 36 36 125 147 196 247 l130 182 90 3 90 2 -78 3 c-43 2 -77 7 -75 12 2
4 37 53 78 109 48 65 82 101 94 102 17 0 18 -5 11 -67 -5 -38 -9 -309 -10
-603 -2 -294 -3 -617 -4 -717 l-1 -183 -807 -2 c-469 -1 -741 -4 -648 -8 88
-4 451 -8 808 -9 l647 -1 0 -110 0 -110 -822 -2 c-523 -1 -746 -4 -613 -8 116
-4 485 -8 822 -9 l612 -1 -6 -130 c-6 -127 -6 -130 15 -130 20 0 20 -4 16
-127 -6 -172 -24 -987 -24 -1090 l0 -83 -612 -1 c-337 -1 -707 -5 -823 -9
-133 -4 91 -7 614 -8 l824 -2 -6 -67 c-4 -38 -7 -87 -7 -110 l0 -43 -647 -1
c-357 -1 -718 -5 -803 -9 -90 -4 183 -7 649 -8 l804 -2 -7 -237 c-3 -131 -11
-479 -17 -773 -6 -294 -12 -541 -14 -548 -4 -9 -178 -13 -822 -14 l-818 -3
820 -5 820 -5 -1 -27 c0 -16 -1 -66 -2 -113 l-2 -85 -827 -3 -828 -2 828 -3
828 -2 -3 -107 -3 -108 -580 3 c-319 1 -692 -2 -830 -6 -201 -7 -87 -9 581
-10 l831 -2 -4 -102 c-2 -57 -15 -632 -29 -1278 -13 -646 -27 -1181 -29 -1187
-6 -17 -3129 -19 -3269 -3 -105 12 -236 59 -318 113 -73 49 -186 168 -227 240
-47 82 -80 190 -92 297 -7 65 -8 1915 -1 5905 l8 5810 23 65 c86 247 270 418
515 480 75 19 112 20 708 20 686 0 669 1 731 -58 60 -57 71 -93 77 -263 5
-148 6 -158 32 -196 36 -55 83 -90 138 -102 64 -15 1821 -15 1875 0 52 14 99
50 133 101 25 39 27 49 32 197 5 133 9 162 28 198 27 51 85 100 135 114 24 6
227 9 570 6 590 -4 577 -2 724 -74 183 -89 326 -270 380 -480 17 -63 18 -148
15 -1195 -2 -621 -1 -1128 2 -1128 2 0 12 23 21 50 19 58 45 78 69 54 20 -19
20 -46 1 -149 -20 -110 -20 -225 0 -225 18 0 44 84 80 251 35 168 37 174 62
177 52 8 55 -103 8 -312 -14 -60 -25 -115 -25 -122 0 -23 29 -16 35 9 2 12 16
72 30 132 l26 110 -3 1240 -3 1240 -23 80 c-88 302 -285 534 -566 666 -183 85
-143 82 -1011 90 -784 7 -4159 9 -4205 3z m-5720 -3684 l0 -549 -65 -37 -66
-36 -127 78 c-70 42 -261 158 -424 257 l-298 181 0 258 c0 238 2 262 20 298
11 21 34 49 52 62 33 23 34 23 428 28 217 3 414 7 438 8 l42 2 0 -550z m8530
-825 c0 -7 -47 -79 -134 -203 l-78 -113 -110 3 -110 3 -89 153 c-49 85 -89
156 -89 158 0 2 137 4 305 4 168 0 305 -2 305 -5z m-230 -332 c0 -16 -86 -133
-97 -133 -13 0 -44 44 -77 108 l-17 32 96 0 c52 0 95 -3 95 -7z m836 -220
c-10 -10 -19 5 -10 18 6 11 8 11 12 0 2 -7 1 -15 -2 -18z m2051 -470 l38 -58
-5 -674 -5 -673 -63 383 c-62 374 -63 386 -53 474 11 97 26 286 37 483 4 67 8
122 10 122 2 0 20 -26 41 -57z m32 -1695 l-1 -133 -18 105 c-25 142 -25 160 0
160 19 0 20 -6 19 -132z m-945 -1183 c8 -44 216 -1067 462 -2274 l448 -2193
-44 -87 c-35 -69 -62 -104 -135 -177 -75 -75 -107 -99 -176 -132 -152 -73
-162 -75 -561 -79 l-358 -5 0 24 c0 41 160 2681 166 2736 l5 52 97 2 97 2 -99
3 -99 4 6 82 c4 45 7 97 7 115 l0 32 103 2 102 2 -100 5 -100 6 3 55 c1 30 25
424 52 875 28 451 50 832 50 848 0 21 5 27 23 28 20 0 21 1 2 8 -21 8 -21 14
-8 201 l7 95 17 -75 c10 -41 25 -111 33 -155z m2115 -560 c105 -25 188 -72
266 -150 115 -115 165 -234 165 -395 0 -161 -50 -280 -165 -396 -175 -177
-432 -215 -656 -98 -334 176 -398 633 -124 892 145 139 328 190 514 147z
m-16465 -4411 c27 -27 19 -62 -20 -82 -48 -25 -97 43 -59 82 21 20 59 21 79 0z
m2068 -11 c22 -20 23 -51 1 -75 -33 -36 -93 -13 -93 37 0 49 55 72 92 38z
m11636 -25 c7 -7 12 -24 12 -38 0 -34 -17 -50 -52 -50 -38 0 -65 41 -50 75 9
19 19 25 45 25 18 0 38 -5 45 -12z"/>
<path d="M23708 15193 c6 -2 18 -2 25 0 6 3 1 5 -13 5 -14 0 -19 -2 -12 -5z"/>
<path d="M23948 15193 c6 -2 18 -2 25 0 6 3 1 5 -13 5 -14 0 -19 -2 -12 -5z"/>
<path d="M23638 15183 c6 -2 18 -2 25 0 6 3 1 5 -13 5 -14 0 -19 -2 -12 -5z"/>
<path d="M24028 15183 c7 -3 16 -2 19 1 4 3 -2 6 -13 5 -11 0 -14 -3 -6 -6z"/>
<path d="M23588 15173 c7 -3 16 -2 19 1 4 3 -2 6 -13 5 -11 0 -14 -3 -6 -6z"/>
<path d="M24078 15173 c7 -3 16 -2 19 1 4 3 -2 6 -13 5 -11 0 -14 -3 -6 -6z"/>
<path d="M23475 15146 c-239 -79 -463 -248 -598 -453 -259 -391 -260 -894 -2
-1287 l34 -51 -60 -215 c-32 -118 -58 -218 -56 -222 1 -4 94 31 207 76 l204
83 48 -29 c73 -45 201 -97 308 -125 121 -32 351 -40 475 -18 284 52 543 205
709 419 138 179 196 309 241 542 52 270 -25 602 -195 848 -52 76 -175 202
-250 259 -107 81 -273 163 -365 182 -17 3 4 -7 45 -22 277 -104 506 -306 635
-563 134 -267 161 -562 75 -848 -85 -287 -300 -542 -576 -684 -166 -85 -323
-122 -524 -122 -196 0 -345 39 -531 136 l-96 51 -186 -76 c-134 -54 -187 -71
-187 -61 0 8 22 96 50 197 27 100 50 187 50 193 0 7 -16 36 -36 65 -160 238
-226 540 -179 815 74 423 364 765 765 901 52 18 88 32 80 32 -8 0 -46 -10 -85
-23z"/>
<path d="M24118 15163 c7 -3 16 -2 19 1 4 3 -2 6 -13 5 -11 0 -14 -3 -6 -6z"/>
<path d="M12698 14973 c6 -2 18 -2 25 0 6 3 1 5 -13 5 -14 0 -19 -2 -12 -5z"/>
<path d="M12755 14958 c54 -29 107 -96 126 -158 6 -20 7 -21 8 -5 2 50 -101
176 -144 175 -5 0 -1 -6 10 -12z"/>
<path d="M15249 14913 c-13 -16 -12 -17 4 -4 9 7 17 15 17 17 0 8 -8 3 -21
-13z"/>
<path d="M15184 14665 c0 -60 1 -84 3 -52 2 32 2 81 0 110 -2 29 -3 3 -3 -58z"/>
<path d="M12894 14630 c0 -69 1 -97 3 -62 2 34 2 90 0 125 -2 34 -3 6 -3 -63z"/>
<path d="M24338 14480 l-73 -80 -190 -1 c-104 -1 -242 -5 -305 -9 -89 -5 -49
-7 178 -8 l294 -2 -19 -24 c-15 -19 -236 -286 -318 -383 l-20 -24 -115 92
c-130 104 -188 144 -196 137 -6 -7 302 -303 315 -303 9 0 235 268 312 370 49
65 64 70 55 18 -3 -21 -6 -179 -6 -350 l0 -313 -390 0 -390 0 -3 368 -2 367
-3 -377 -2 -378 405 0 405 0 0 376 0 376 63 87 c34 47 70 98 80 114 33 51 -2
27 -75 -53z"/>
<path d="M9910 14520 c-8 -5 -10 -10 -5 -10 6 0 17 5 25 10 8 5 11 10 5 10 -5
0 -17 -5 -25 -10z"/>
<path d="M12900 14497 c0 -36 93 -147 125 -147 5 0 -7 11 -28 25 -20 14 -50
49 -67 78 -16 29 -30 48 -30 44z"/>
<path d="M13243 14333 c97 -2 257 -2 355 0 97 1 17 2 -178 2 -195 0 -275 -1
-177 -2z"/>
<path d="M8365 14156 c-67 -21 -123 -54 -180 -106 -72 -65 -103 -80 -170 -80
-85 0 -140 -18 -189 -61 -102 -90 -122 -250 -56 -449 11 -33 21 -102 24 -170
7 -129 21 -219 42 -268 11 -28 18 -33 41 -30 22 2 33 13 53 53 23 46 25 64 30
221 l5 171 45 34 c43 32 74 82 120 189 14 34 17 35 75 38 82 5 159 -12 295
-63 148 -55 213 -69 330 -69 212 0 330 66 330 186 0 38 -6 54 -29 80 -23 26
-36 32 -70 32 -40 1 -42 2 -37 27 15 76 -45 149 -138 170 -47 10 -69 10 -138
-4 -45 -9 -82 -15 -83 -14 0 1 -9 20 -20 42 -38 76 -164 108 -280 71z"/>
<path d="M20337 14039 c-65 -10 -106 -36 -142 -90 l-31 -45 -39 18 c-132 58
-252 15 -243 -89 3 -36 0 -43 -15 -43 -48 0 -120 -65 -132 -119 -9 -40 11 -78
60 -116 38 -29 40 -32 37 -80 -6 -111 100 -182 210 -140 11 5 18 -1 23 -17 5
-17 170 -399 180 -416 1 -1 22 7 46 18 66 30 105 26 144 -13 44 -44 61 -107
43 -156 -12 -33 -40 -54 -116 -87 -5 -2 96 -172 151 -253 73 -109 198 -235
265 -268 51 -25 67 -27 202 -31 l147 -4 31 113 c17 63 46 170 63 239 18 69 34
127 36 129 8 11 47 -39 76 -98 31 -63 32 -72 38 -221 l6 -155 -1 160 c-1 150
-3 163 -27 215 -14 31 -40 72 -58 92 l-31 36 36 148 c32 134 39 151 75 192 86
99 101 295 32 441 -15 31 -53 84 -86 118 l-59 62 68 4 69 3 -85 2 c-57 2 -92
8 -105 18 -31 23 -142 54 -196 54 -80 0 -109 19 -191 121 -93 117 -172 190
-242 223 -48 23 -75 29 -166 40 -14 2 -46 -1 -73 -5z"/>
<path d="M11845 13953 c11 -3 65 -48 120 -101 l100 -97 -100 103 c-65 67 -107
102 -120 101 -20 -1 -20 -1 0 -6z"/>
<path d="M11735 13868 l-80 -83 83 80 c45 44 82 81 82 82 0 8 -11 -3 -85 -79z"/>
<path d="M16683 13788 c-79 -81 -110 -124 -99 -136 3 -3 6 1 6 8 0 19 181 200
200 200 8 0 59 -44 113 -98 l97 -97 0 -113 0 -112 -65 0 -65 0 0 70 c0 77 -10
90 -69 90 -47 0 -61 -22 -61 -95 0 -41 -4 -65 -12 -68 -8 -3 -6 -6 5 -6 15 -1
17 9 17 67 0 76 9 92 55 92 46 0 55 -16 55 -92 l0 -68 75 0 75 0 0 124 0 124
-97 96 c-71 69 -105 96 -123 96 -19 0 -47 -22 -107 -82z"/>
<path d="M21023 13853 c70 -2 184 -2 255 0 70 1 12 3 -128 3 -140 0 -198 -2
-127 -3z"/>
<path d="M12064 13625 c0 -60 1 -84 3 -52 2 32 2 81 0 110 -2 29 -3 3 -3 -58z"/>
<path d="M20983 13713 c53 -2 141 -2 195 0 53 1 9 3 -98 3 -107 0 -151 -2 -97
-3z"/>
<path d="M8293 13491 c-44 -11 -83 -38 -83 -57 0 -13 7 -15 38 -9 20 4 70 10
111 14 41 3 76 11 78 17 8 24 -90 48 -144 35z"/>
<path d="M8748 13454 c-51 -27 -36 -44 42 -45 39 -1 76 -2 82 -3 7 -1 14 7 16
17 3 12 -7 22 -32 32 -44 19 -73 18 -108 -1z"/>
<path d="M8765 13310 c-12 -4 -26 -15 -33 -23 -12 -14 -5 -15 61 -10 47 4 81
1 95 -6 18 -10 22 -9 22 3 0 34 -94 57 -145 36z"/>
<path d="M8271 13297 c-14 -6 -26 -18 -29 -25 -3 -10 5 -12 34 -6 47 9 57 9
114 0 l45 -7 -28 26 c-32 28 -94 34 -136 12z"/>
<path d="M8584 13280 c2 -19 29 -102 60 -185 31 -82 56 -157 56 -167 0 -13 -8
-18 -32 -19 -18 0 -42 -4 -53 -9 -15 -6 -5 -9 36 -9 57 -1 79 10 79 40 0 20
-87 252 -124 329 -24 51 -26 52 -22 20z"/>
<path d="M8810 13240 c-6 -12 -8 -30 -5 -40 7 -24 52 -37 74 -23 20 13 26 50
11 69 -19 21 -67 18 -80 -6z"/>
<path d="M8332 13238 c-7 -7 -12 -21 -12 -33 0 -29 19 -45 52 -45 36 0 56 36
39 69 -13 23 -59 29 -79 9z"/>
<path d="M7707 13162 c-24 -26 -31 -75 -17 -116 12 -37 41 -61 63 -52 7 2 5 5
-5 5 -46 2 -68 120 -29 155 11 10 25 15 32 10 8 -4 10 -3 5 4 -10 17 -31 15
-49 -6z"/>
<path d="M14020 12980 l0 -40 40 0 40 0 0 40 0 40 -40 0 -40 0 0 -40z"/>
<path d="M11600 12960 c0 -22 5 -40 10 -40 6 0 11 -19 11 -42 l2 -43 6 40 c5
32 11 41 29 43 12 2 22 10 22 17 0 8 14 15 33 18 l32 4 -32 1 c-26 2 -33 6
-33 22 0 17 -7 20 -40 20 l-40 0 0 -40z"/>
<path d="M12090 12960 c-22 -5 8 -7 85 -8 89 0 110 2 80 9 -48 9 -117 9 -165
-1z"/>
<path d="M12630 12960 c-22 -5 8 -7 85 -8 89 0 110 2 80 9 -48 9 -117 9 -165
-1z"/>
<path d="M13170 12960 c-22 -5 8 -7 85 -8 89 0 110 2 80 9 -48 9 -117 9 -165
-1z"/>
<path d="M13710 12960 c-22 -5 8 -7 85 -8 89 0 110 2 80 9 -48 9 -117 9 -165
-1z"/>
<path d="M14250 12960 c-22 -5 8 -7 85 -8 89 0 110 2 80 9 -48 9 -117 9 -165
-1z"/>
<path d="M14790 12960 c-22 -5 8 -7 85 -8 89 0 110 2 80 9 -48 9 -117 9 -165
-1z"/>
<path d="M15330 12960 c-22 -5 8 -7 85 -8 89 0 110 2 80 9 -48 9 -117 9 -165
-1z"/>
<path d="M8445 12850 c-11 -18 15 -79 46 -104 35 -29 89 -42 116 -28 20 12 15
14 -38 26 -37 8 -79 44 -95 83 -15 35 -19 39 -29 23z"/>
<path d="M16619 12696 c-102 -41 -173 -109 -217 -205 -24 -51 -27 -70 -30
-202 -3 -116 -1 -159 13 -205 32 -113 109 -204 214 -253 l56 -26 650 -1 650 0
-630 6 c-541 5 -636 8 -672 21 -110 42 -186 110 -232 208 -25 53 -26 64 -26
221 0 157 1 168 26 221 45 96 113 159 219 205 44 18 94 19 1720 24 l1675 5
-1680 2 -1680 3 -56 -24z"/>
<path d="M11621 12445 c-1 -69 -4 -82 -22 -93 -32 -20 -23 -82 14 -100 24 -12
31 -11 52 2 13 8 26 25 30 36 8 25 -18 70 -40 70 -11 0 -15 12 -16 43 0 23 -4
60 -8 82 -8 35 -9 29 -10 -40z"/>
<path d="M8240 12423 c0 -2 13 -24 29 -47 61 -88 169 -145 292 -153 l79 -6 0
40 0 40 -65 7 c-85 9 -173 37 -262 85 -40 21 -73 36 -73 34z"/>
<path d="M21130 12031 c0 -5 7 -15 17 -22 15 -13 15 -12 4 9 -12 23 -21 28
-21 13z"/>
<path d="M11623 11860 c0 -117 0 -121 9 -62 6 39 6 85 0 125 -9 58 -9 54 -9
-63z"/>
<path d="M12637 11946 c-76 -28 -123 -100 -113 -172 l5 -42 -81 27 -82 27
-100 -20 c-122 -24 -112 -33 12 -12 l89 16 86 -30 c58 -21 96 -41 119 -64 45
-45 105 -63 157 -48 45 14 87 45 102 75 10 21 10 21 -8 -1 -61 -75 -187 -85
-243 -17 -11 14 -6 15 61 10 l74 -5 -78 14 c-43 8 -82 17 -85 21 -4 4 -7 32
-7 64 1 93 57 151 147 151 53 0 102 -25 128 -65 11 -16 20 -25 20 -19 0 18
-40 63 -69 78 -43 23 -93 27 -134 12z"/>
<path d="M11888 11693 c7 -3 16 -2 19 1 4 3 -2 6 -13 5 -11 0 -14 -3 -6 -6z"/>
<path d="M12010 11519 c0 -3 9 -22 20 -44 11 -22 20 -55 21 -75 0 -32 1 -33
10 -11 12 30 -4 92 -31 116 -11 10 -20 16 -20 14z"/>
<path d="M14020 11310 l0 -40 40 0 40 0 0 40 0 40 -40 0 -40 0 0 -40z"/>
<path d="M12070 11309 c-14 -4 31 -7 100 -7 94 0 115 2 85 9 -46 10 -149 9
-185 -2z"/>
<path d="M12625 11310 c-19 -5 13 -8 85 -8 72 0 104 3 85 8 -16 4 -55 8 -85 8
-30 0 -68 -4 -85 -8z"/>
<path d="M13165 11310 c-19 -5 15 -8 90 -8 89 0 110 2 80 9 -49 10 -129 9
-170 -1z"/>
<path d="M13710 11310 c-22 -5 8 -7 85 -8 89 0 110 2 80 9 -48 9 -117 9 -165
-1z"/>
<path d="M14245 11310 c-19 -5 15 -8 90 -8 89 0 110 2 80 9 -49 10 -129 9
-170 -1z"/>
<path d="M14785 11310 c-19 -5 15 -8 90 -8 89 0 110 2 80 9 -49 10 -129 9
-170 -1z"/>
<path d="M15325 11310 c-19 -5 15 -8 90 -8 89 0 110 2 80 9 -49 10 -129 9
-170 -1z"/>
<path d="M16590 10515 l0 -545 545 0 545 0 0 545 0 545 -545 0 -545 0 0 -545z"/>
<path d="M12630 10650 c0 -49 1 -50 30 -50 l29 0 4 -107 3 -108 2 108 c2 87 5
107 17 107 11 0 15 12 15 50 l0 50 -50 0 -50 0 0 -50z"/>
<path d="M11700 10630 c0 -43 3 -50 20 -50 18 0 20 -7 20 -54 0 -30 5 -58 10
-61 6 -4 10 17 10 54 0 54 2 61 19 61 21 0 29 25 22 73 -3 25 -6 27 -52 27
l-49 0 0 -50z"/>
<path d="M12173 10623 c37 -2 97 -2 135 0 37 2 6 3 -68 3 -74 0 -105 -1 -67
-3z"/>
<path d="M13598 10583 c215 -2 569 -2 785 0 215 1 39 2 -393 2 -432 0 -608 -1
-392 -2z"/>
<path d="M11747 10093 c-11 -10 -8 -181 3 -188 6 -4 10 30 10 94 0 101 -1 107
-13 94z"/>
<path d="M12694 9960 c0 -74 1 -105 3 -67 2 37 2 97 0 135 -2 37 -3 6 -3 -68z"/>
<path d="M9078 9863 c50 -2 134 -2 185 0 50 1 9 3 -93 3 -102 0 -143 -2 -92
-3z"/>
<path d="M9503 9863 c81 -2 213 -2 295 0 81 1 14 3 -148 3 -162 0 -229 -2
-147 -3z"/>
<path d="M9350 9720 c-44 -69 -130 -145 -185 -163 -25 -9 -83 -22 -128 -29
-60 -9 -73 -14 -48 -16 48 -5 157 16 213 40 57 24 127 96 162 167 15 28 24 51
22 51 -2 0 -18 -22 -36 -50z"/>
<path d="M13450 9760 c-168 -3 91 -6 575 -6 615 0 778 2 540 7 -384 7 -672 7
-1115 -1z"/>
<path d="M11700 9680 l0 -50 50 0 50 0 0 50 0 50 -50 0 -50 0 0 -50z"/>
<path d="M12630 9710 c0 -18 -8 -20 -102 -23 l-103 -3 103 -2 c102 -2 102 -2
102 -27 0 -23 3 -25 50 -25 l50 0 0 50 0 50 -50 0 c-43 0 -50 -3 -50 -20z"/>
<path d="M11933 9683 c37 -2 96 -2 130 0 34 2 4 3 -68 3 -71 0 -99 -1 -62 -3z"/>
<path d="M9310 9548 c-90 -95 -124 -113 -222 -125 -27 -3 -48 -10 -48 -14 0
-11 83 -1 145 18 28 9 65 29 83 47 39 36 136 155 131 160 -2 2 -42 -37 -89
-86z"/>
<path d="M9315 9419 c-39 -52 -55 -62 -159 -93 -48 -15 -86 -29 -84 -31 2 -2
44 5 93 16 92 22 123 40 167 102 31 44 16 50 -17 6z"/>
<path d="M16590 8685 l0 -545 545 0 545 0 0 545 0 545 -545 0 -545 0 0 -545z"/>
<path d="M18613 9113 c203 -2 531 -2 730 0 199 1 34 2 -368 2 -401 0 -564 -1
-362 -2z"/>
<path d="M8420 9090 c-30 -4 165 -7 434 -8 269 -1 487 0 485 2 -8 7 -865 13
-919 6z"/>
<path d="M7363 8793 c416 -2 1098 -2 1515 0 416 1 75 2 -758 2 -833 0 -1174
-1 -757 -2z"/>
<path d="M7043 8503 c268 -2 706 -2 975 0 268 1 48 2 -488 2 -536 0 -756 -1
-487 -2z"/>
<path d="M18587 8307 c261 -6 583 -6 850 0 416 9 405 10 -422 10 -822 0 -836
-1 -428 -10z"/>
<path d="M13290 8049 c47 -4 378 -7 735 -7 358 0 688 3 735 7 47 5 -284 8
-735 8 -451 0 -782 -3 -735 -8z"/>
<path d="M26135 7411 l-38 -80 -51 -6 c-28 -4 -68 -11 -89 -16 -38 -10 -40 -9
-107 50 -38 34 -71 61 -75 61 -3 0 -63 -37 -134 -82 l-128 -81 30 -85 c20 -55
27 -88 21 -96 -5 -7 -29 -42 -53 -79 l-45 -67 -91 0 -92 0 -31 -142 c-18 -79
-32 -150 -32 -158 1 -9 34 -30 79 -52 78 -36 79 -37 85 -80 4 -23 12 -65 18
-91 l10 -49 -44 -46 c-92 -98 -92 -74 2 -221 l82 -129 60 20 c32 11 57 22 55
24 -2 2 -23 -3 -47 -11 -23 -8 -48 -15 -55 -15 -12 0 -155 218 -155 236 0 5
27 36 60 69 l61 61 -16 59 c-8 33 -15 79 -15 103 l0 43 -84 39 -85 38 14 59
c8 32 22 95 32 141 l17 82 91 0 90 0 38 58 c20 31 47 70 59 85 l22 28 -29 84
c-16 46 -27 86 -24 88 2 2 56 36 119 75 l114 72 62 -61 62 -62 81 17 c45 9 93
16 107 16 22 0 30 10 62 80 20 44 42 80 48 80 7 0 61 -11 121 -25 59 -14 118
-27 131 -30 21 -5 22 -10 22 -95 l0 -90 43 -26 c23 -15 61 -42 83 -60 l42 -33
82 30 c46 16 86 26 90 22 4 -4 39 -58 77 -119 l70 -111 -63 -65 c-57 -59 -63
-69 -55 -91 5 -13 15 -60 21 -103 l12 -79 64 -29 c104 -47 99 -32 64 -185 -16
-73 -30 -135 -30 -137 0 -2 -42 -4 -94 -4 -87 0 -95 -2 -101 -21 -4 -11 -29
-49 -56 -85 l-49 -65 30 -81 c24 -65 28 -84 18 -93 -7 -7 -62 -42 -121 -80
l-108 -68 -64 63 -63 62 -70 -16 c-39 -9 -85 -16 -102 -16 -29 0 -34 -5 -71
-84 l-39 -84 -58 14 c-31 7 -64 13 -72 13 -8 -1 19 -10 60 -20 41 -10 75 -17
76 -16 1 1 20 39 43 85 39 78 43 82 74 82 19 0 59 5 91 12 l57 11 62 -61 c35
-34 66 -62 69 -62 7 0 245 146 261 160 4 4 -6 45 -23 91 l-30 84 20 25 c11 14
34 48 52 77 l33 52 94 3 94 3 35 153 c18 85 32 154 30 155 -156 78 -163 83
-165 107 -2 14 -8 56 -14 94 l-11 68 62 63 63 64 -71 113 c-108 172 -85 157
-184 123 l-84 -28 -77 53 -77 54 0 87 c0 49 -3 90 -8 93 -11 6 -273 66 -292
66 -10 0 -30 -29 -55 -79z"/>
<path d="M16590 6865 l0 -545 545 0 545 0 0 545 0 545 -545 0 -545 0 0 -545z"/>
<path d="M18603 7293 c208 -2 546 -2 750 0 205 1 35 2 -378 2 -412 0 -580 -1
-372 -2z"/>
<path d="M12640 7080 c0 -47 2 -50 25 -50 25 0 25 0 26 -102 0 -67 3 -96 9
-83 5 11 9 57 9 103 1 66 4 82 16 82 11 0 15 12 15 50 l0 50 -50 0 -50 0 0
-50z"/>
<path d="M11710 7050 c0 -43 3 -50 20 -50 17 0 20 -8 23 -77 l3 -78 2 78 c2
75 3 77 27 77 23 0 25 3 25 50 l0 50 -50 0 -50 0 0 -50z"/>
<path d="M13605 7078 c190 -5 489 -5 680 0 319 8 297 9 -340 9 -637 0 -658 -1
-340 -9z"/>
<path d="M12150 7050 c0 -6 40 -10 101 -10 64 0 98 4 94 10 -3 6 -48 10 -101
10 -56 0 -94 -4 -94 -10z"/>
<path d="M26010 6894 c-104 -38 -186 -126 -211 -227 -25 -100 4 -228 68 -303
24 -27 103 -84 117 -84 6 0 -3 9 -20 19 -51 31 -105 93 -132 151 -74 158 9
358 175 420 210 78 423 -72 423 -298 0 -161 -122 -291 -295 -313 l-60 -8 68 3
c120 6 224 76 276 186 22 47 26 68 26 145 0 78 -4 97 -28 142 -59 114 -154
174 -282 180 -56 2 -93 -2 -125 -13z"/>
<path d="M11754 6425 c0 -77 2 -107 3 -67 2 40 2 103 0 140 -2 37 -3 4 -3 -73z"/>
<path d="M18285 6490 c28 -12 1436 -12 1455 0 10 6 -246 10 -730 9 -425 0
-736 -4 -725 -9z"/>
<path d="M12691 6380 c0 -73 4 -108 9 -95 5 11 9 54 9 95 0 41 -4 84 -9 95 -5
13 -9 -22 -9 -95z"/>
<path d="M13255 6250 c131 -10 1342 -10 1465 0 52 3 -278 7 -735 7 -456 0
-785 -4 -730 -7z"/>
<path d="M11710 6100 l0 -50 50 0 50 0 0 50 0 50 -50 0 -50 0 0 -50z"/>
<path d="M12640 6130 c0 -18 -8 -20 -107 -23 l-108 -3 108 -2 c107 -2 107 -2
107 -27 0 -23 3 -25 50 -25 l50 0 0 50 0 50 -50 0 c-43 0 -50 -3 -50 -20z"/>
<path d="M11933 6103 c37 -2 97 -2 135 0 37 2 6 3 -68 3 -74 0 -105 -1 -67 -3z"/>
<path d="M25590 6020 c-11 -8 -8 -9 13 -4 21 5 35 1 55 -17 l27 -24 -24 28
c-26 28 -46 33 -71 17z"/>
<path d="M25818 5723 c7 -3 16 -2 19 1 4 3 -2 6 -13 5 -11 0 -14 -3 -6 -6z"/>
<path d="M25870 5710 c14 -4 34 -8 45 -8 16 0 15 2 -5 8 -14 4 -34 8 -45 8
-16 0 -15 -2 5 -8z"/>
<path d="M16590 5046 c0 -501 1 -545 17 -548 9 -2 254 -2 545 0 l528 2 0 545
0 545 -545 0 -545 0 0 -544z"/>
<path d="M18420 5472 c0 -10 966 -13 1045 -3 34 5 -182 9 -492 10 -304 0 -553
-3 -553 -7z"/>
<path d="M19600 5469 c0 -5 5 -7 10 -4 6 3 10 8 10 11 0 2 -4 4 -10 4 -5 0
-10 -5 -10 -11z"/>
<path d="M4731 4794 c0 -11 3 -14 6 -6 3 7 2 16 -1 19 -3 4 -6 -2 -5 -13z"/>
<path d="M13583 4277 c276 -6 603 -6 880 0 431 9 419 9 -438 9 -855 0 -868 0
-442 -9z"/>
<path d="M12630 3340 c0 -49 1 -50 30 -50 l29 0 4 -107 3 -108 2 108 c2 87 5
107 17 107 11 0 15 12 15 50 l0 50 -50 0 -50 0 0 -50z"/>
<path d="M11700 3320 c0 -43 3 -50 20 -50 18 0 20 -7 20 -54 0 -30 5 -58 10
-61 6 -4 10 17 10 54 0 54 2 61 19 61 21 0 29 25 22 73 -3 25 -6 27 -52 27
l-49 0 0 -50z"/>
<path d="M12183 3313 c37 -2 96 -2 130 0 34 2 4 3 -68 3 -71 0 -99 -1 -62 -3z"/>
<path d="M13532 3233 c223 -2 592 -2 820 0 227 1 44 2 -407 2 -451 0 -637 -1
-413 -2z"/>
<path d="M11747 2783 c-11 -10 -8 -181 3 -188 6 -4 10 30 10 94 0 101 -1 107
-13 94z"/>
<path d="M12694 2650 c0 -74 1 -105 3 -67 2 37 2 97 0 135 -2 37 -3 6 -3 -68z"/>
<path d="M11700 2370 l0 -50 50 0 50 0 0 50 0 50 -50 0 -50 0 0 -50z"/>
<path d="M12630 2400 c0 -18 -8 -20 -107 -23 l-108 -3 108 -2 c107 -2 107 -2
107 -27 0 -23 3 -25 50 -25 l50 0 0 50 0 50 -50 0 c-43 0 -50 -3 -50 -20z"/>
<path d="M13553 2401 c241 -4 632 -4 870 0 310 3 186 5 -438 5 -631 0 -750 -1
-432 -5z"/>
<path d="M11923 2373 c37 -2 97 -2 135 0 37 2 6 3 -68 3 -74 0 -105 -1 -67 -3z"/>
<path d="M4196 1785 c-5 -23 -20 -46 -49 -71 -23 -20 -33 -32 -22 -26 35 18
74 67 81 100 4 18 4 32 1 32 -2 0 -8 -16 -11 -35z"/>
<path d="M3978 1633 c7 -3 16 -2 19 1 4 3 -2 6 -13 5 -11 0 -14 -3 -6 -6z"/>
<path d="M22280 1619 c-36 -3 1251 -5 2860 -5 1609 1 2459 2 1890 3 -2553 7
-4690 8 -4750 2z"/>
</g>
</svg>
